<svg width="33" height="32" viewBox="0 0 33 32" fill="none" xmlns="http://www.w3.org/2000/svg">
<g clip-path="url(#clip0_553_171)">
<rect x="0.666626" width="32" height="32" rx="16" fill="#F4F4F4"/>
<path d="M32.1666 16C32.1666 7.43959 25.227 0.5 16.6666 0.5C8.10621 0.5 1.16663 7.43959 1.16663 16C1.16663 24.5604 8.10621 31.5 16.6666 31.5C25.227 31.5 32.1666 24.5604 32.1666 16Z" stroke="#85EFAC"/>
<path fill-rule="evenodd" clip-rule="evenodd" d="M22.0517 10.4966C22.6058 9.88079 23.5543 9.83087 24.17 10.3851C24.7858 10.9393 24.8357 11.8877 24.2815 12.5035L15.2815 22.5035C14.7066 23.1422 13.7136 23.1684 13.1059 22.5607L9.10597 18.5607C8.52018 17.9749 8.52018 17.0251 9.10597 16.4394C9.69176 15.8536 10.6415 15.8536 11.2273 16.4394L14.1093 19.3214L22.0517 10.4966Z" fill="#16A249"/>
</g>
<rect x="1.16663" y="0.5" width="31" height="31" rx="15.5" stroke="#85EFAC"/>
<defs>
<clipPath id="clip0_553_171">
<rect x="0.666626" width="32" height="32" rx="16" fill="white"/>
</clipPath>
</defs>
</svg>
