<svg width="49" height="48" viewBox="0 0 49 48" fill="none" xmlns="http://www.w3.org/2000/svg">
<rect x="0.833374" y="0.5" width="47" height="47" rx="23.5" fill="#F4F4F4"/>
<rect x="0.833374" y="0.5" width="47" height="47" rx="23.5" stroke="#ACACAC"/>
<path d="M31.3165 23.7253C31.2929 23.6232 31.2442 23.5285 31.1748 23.4498C31.1054 23.371 31.0175 23.3107 30.9189 23.274L26.3377 22.5642L27.4989 15.7619C27.5256 15.6275 27.5083 15.4881 27.4496 15.3642C27.391 15.2403 27.2939 15.1383 27.1728 15.0732C27.0504 15.0085 26.91 14.9858 26.7734 15.0087C26.6367 15.0316 26.5115 15.0988 26.4172 15.1999L17.5093 24.6989C17.4363 24.7743 17.3835 24.8667 17.3557 24.9676C17.3279 25.0686 17.326 25.1749 17.3502 25.2768C17.3751 25.3783 17.4243 25.4723 17.4935 25.5508C17.5628 25.6294 17.65 25.6902 17.7479 25.728L22.3291 26.4378L21.1679 33.2401C21.1412 33.3745 21.1584 33.5139 21.2171 33.6378C21.2758 33.7617 21.3728 33.8637 21.494 33.9288C21.5853 33.9746 21.686 33.999 21.7883 34C21.8747 34.0004 21.9603 33.983 22.0397 33.9489C22.119 33.9149 22.1905 33.8649 22.2496 33.8021L31.1575 24.3031C31.2305 24.2277 31.2833 24.1353 31.3111 24.0344C31.3389 23.9334 31.3407 23.8271 31.3165 23.7253Z" fill="#FB923C"/>
</svg>
