<svg width="49" height="48" viewBox="0 0 49 48" fill="none" xmlns="http://www.w3.org/2000/svg">
<rect x="1.16663" y="0.5" width="47" height="47" rx="23.5" fill="#F4F4F4"/>
<rect x="1.16663" y="0.5" width="47" height="47" rx="23.5" stroke="#ACACAC"/>
<g clip-path="url(#clip0_553_130)">
<mask id="mask0_553_130" style="mask-type:luminance" maskUnits="userSpaceOnUse" x="12" y="12" width="25" height="24">
<path d="M36.6666 12H12.6666V36H36.6666V12Z" fill="white"/>
</mask>
<g mask="url(#mask0_553_130)">
<path d="M30.5768 14.5525C30.5768 14.3025 30.4068 14.0845 30.1645 14.0239L29.8662 13.9492C29.5673 13.8744 29.2944 13.7197 29.0766 13.5017C28.8587 13.2836 28.7042 13.0104 28.6295 12.7113L28.5549 12.413C28.4943 12.1703 28.2765 12 28.0266 12C27.7769 12 27.5592 12.17 27.4984 12.4124L27.4233 12.7113C27.3487 13.0103 27.1943 13.2835 26.9766 13.5015C26.7589 13.7195 26.4862 13.8743 26.1875 13.9492L25.8892 14.0239C25.6469 14.0845 25.4769 14.3025 25.4769 14.5525C25.4769 14.8025 25.6469 15.0204 25.8892 15.0811L26.1875 15.1557C26.4863 15.2305 26.7593 15.3852 26.9771 15.6033C27.1949 15.8213 27.3495 16.0945 27.4242 16.3937L27.4988 16.6922C27.5593 16.9348 27.7771 17.1049 28.0268 17.1049C28.2766 17.1049 28.4943 16.9348 28.5549 16.6922L28.6295 16.3937C28.7042 16.0945 28.8587 15.8213 29.0766 15.6033C29.2944 15.3852 29.5673 15.2305 29.8662 15.1557L30.1645 15.0811C30.4068 15.0204 30.5768 14.8025 30.5768 14.5525Z" fill="#EE4248"/>
<path d="M36.6666 19.5C36.6666 19.1572 36.4333 18.8583 36.1007 18.7752L35.6913 18.6728C35.2811 18.5703 34.9065 18.3581 34.6075 18.0591C34.3085 17.7602 34.0964 17.3855 33.9938 16.9753L33.8914 16.5659C33.8083 16.2333 33.5094 16 33.1666 16C32.8238 16 32.525 16.2333 32.4418 16.5659L32.3394 16.9753C32.2369 17.3855 32.0247 17.7602 31.7257 18.0591C31.4268 18.3581 31.0521 18.5703 30.6419 18.6728L30.2325 18.7752C29.8999 18.8583 29.6666 19.1572 29.6666 19.5C29.6666 19.8428 29.8999 20.1417 30.2325 20.2248L30.6419 20.3272C31.0521 20.4298 31.4268 20.6419 31.7257 20.9409C32.0247 21.2399 32.2369 21.6145 32.3394 22.0247L32.4418 22.4341C32.525 22.7667 32.8238 23 33.1666 23C33.5094 23 33.8083 22.7667 33.8914 22.4341L33.9938 22.0247C34.0964 21.6145 34.3085 21.2399 34.6075 20.9409C34.9065 20.6419 35.2811 20.4298 35.6913 20.3272L36.1007 20.2248C36.4333 20.1417 36.6666 19.8428 36.6666 19.5Z" fill="#EE4248"/>
<path d="M22.3801 16.5138C22.6504 15.8287 23.6836 15.8287 23.9539 16.5138L25.9037 21.6693C25.9886 21.8847 26.1697 22.6172 26.3994 22.6969L31.1187 24.7758C31.8492 25.0293 31.8492 25.9982 31.1187 26.2517L26.3994 27.8346C26.1697 27.9143 25.9886 28.6468 25.9037 28.8622L23.9539 33.4862C23.6836 34.1713 22.6504 34.1713 22.3801 33.4862L20.4304 28.8622C20.3454 28.6468 20.1643 27.9143 19.9346 27.8346L15.2145 26.2517C14.484 25.9982 14.484 25.0293 15.2145 24.7758L19.9346 22.6969C20.1643 22.6172 20.3454 21.8847 20.4304 21.6693L22.3801 16.5138Z" fill="#EE4248"/>
</g>
</g>
<defs>
<clipPath id="clip0_553_130">
<rect width="24" height="24" fill="white" transform="translate(12.6666 12)"/>
</clipPath>
</defs>
</svg>
