<svg width="48" height="48" viewBox="0 0 48 48" fill="none" xmlns="http://www.w3.org/2000/svg">
<rect x="0.5" y="0.5" width="47" height="47" rx="23.5" fill="#F4F4F4"/>
<rect x="0.5" y="0.5" width="47" height="47" rx="23.5" stroke="black"/>
<path d="M24.3666 30.0681C24.1388 29.9404 23.861 29.9404 23.6332 30.0681L18.9301 32.7045C18.3717 33.0175 17.7031 32.5322 17.8277 31.9043L18.8831 26.5841C18.9313 26.3411 18.8564 26.0899 18.6828 25.913L15.0578 22.2178C14.6236 21.7752 14.8834 21.0269 15.4984 20.9486L20.4724 20.3149C20.7289 20.2822 20.9506 20.1197 21.0588 19.8847L23.3187 14.9787C23.5866 14.3971 24.4132 14.3971 24.6811 14.9787L26.9411 19.8847C27.0493 20.1197 27.2709 20.2822 27.5275 20.3149L32.5014 20.9486C33.1164 21.0269 33.3762 21.7752 32.9421 22.2178L29.317 25.913C29.1435 26.0899 29.0685 26.3411 29.1167 26.5841L30.1722 31.9043C30.2967 32.5322 29.6281 33.0175 29.0698 32.7045L24.3666 30.0681Z" fill="#1A1A1A"/>
</svg>
