<svg width="339" height="382" viewBox="0 0 339 382" fill="none" xmlns="http://www.w3.org/2000/svg">
<path fill-rule="evenodd" clip-rule="evenodd" d="M312.034 190.663V190.663L312.059 192.093L312.134 193.525L312.259 194.961L312.434 196.402L312.658 197.85L312.93 199.307L313.251 200.775L313.619 202.254L314.035 203.748L314.496 205.258L315.002 206.784L315.552 208.33L316.144 209.896L316.777 211.483L317.448 213.093L318.158 214.728L318.902 216.389L319.679 218.076L320.487 219.79L321.322 221.533L322.182 223.305L323.063 225.107L323.962 226.938L324.875 228.8L325.798 230.691L326.727 232.612L327.657 234.563L328.582 236.542L329.499 238.548L330.401 240.579L331.283 242.636L332.139 244.714L332.962 246.812L333.747 248.928L334.487 251.058L335.176 253.199L335.807 255.348L336.373 257.5L336.868 259.652L337.286 261.799L337.621 263.936L337.867 266.059L338.018 268.162L338.07 270.242L338.018 272.291L337.858 274.306L337.587 276.282L337.201 278.212L336.7 280.094L336.082 281.921L335.345 283.69L334.492 285.398L333.523 287.039L332.439 288.612L331.244 290.114L329.941 291.543L328.533 292.897L327.027 294.174L325.426 295.376L323.736 296.5L321.965 297.549L320.118 298.523L318.202 299.423L316.224 300.252L314.191 301.011L312.11 301.704L309.988 302.334L307.832 302.903L305.649 303.416L303.445 303.876L301.227 304.286L299.001 304.652L296.772 304.977L294.545 305.265L292.326 305.521L290.119 305.748L287.928 305.951L285.758 306.133L283.611 306.299L281.491 306.452L279.399 306.596L277.34 306.735L275.314 306.872L273.323 307.01L271.369 307.153L269.452 307.304L267.575 307.465L265.736 307.639L263.937 307.83L262.178 308.038L260.458 308.268L258.778 308.52L257.137 308.797L255.535 309.102L253.97 309.435L252.442 309.799L250.951 310.196L249.495 310.626L248.073 311.092L246.684 311.595L245.327 312.136L244 312.717L242.702 313.338L241.432 314.001L240.188 314.707L238.969 315.456L237.772 316.249L236.597 317.088L235.442 317.972L234.305 318.903L233.184 319.881L232.077 320.906L230.983 321.978L229.9 323.098L228.825 324.266L227.758 325.48L226.696 326.742L225.636 328.051L224.578 329.406L223.519 330.805L222.457 332.249L221.389 333.736L220.315 335.264L219.231 336.831L218.136 338.436L217.027 340.077L215.903 341.749L214.761 343.452L213.6 345.18L212.417 346.931L211.211 348.701L209.979 350.485L208.721 352.278L207.434 354.076L206.117 355.872L204.768 357.661L203.387 359.437L201.972 361.193L200.522 362.923L199.038 364.618L197.518 366.273L195.962 367.879L194.372 369.429L192.746 370.915L191.086 372.33L189.394 373.665L187.669 374.915L185.915 376.071L184.133 377.127L182.325 378.076L180.493 378.913L178.642 379.632L176.772 380.229L174.889 380.7L172.994 381.042L171.092 381.252L169.186 381.329L167.28 381.273L165.377 381.084L163.481 380.763L161.596 380.313L159.724 379.735L157.869 379.035L156.034 378.217L154.222 377.285L152.436 376.246L150.677 375.105L148.948 373.87L147.25 372.548L145.585 371.145L143.954 369.67L142.357 368.13L140.796 366.532L139.271 364.885L137.781 363.195L136.326 361.471L134.905 359.718L133.519 357.945L132.165 356.157L130.843 354.362L129.551 352.564L128.288 350.77L127.052 348.984L125.842 347.212L124.656 345.458L123.491 343.725L122.347 342.019L121.22 340.341L120.109 338.695L119.012 337.085L117.926 335.511L116.85 333.976L115.782 332.483L114.719 331.032L113.659 329.625L112.601 328.264L111.542 326.948L110.48 325.678L109.414 324.456L108.341 323.281L107.259 322.153L106.167 321.073L105.062 320.041L103.944 319.056L102.809 318.118L101.657 317.226L100.485 316.38L99.292 315.579L98.0763 314.823L96.8363 314.111L95.5704 313.441L94.2772 312.813L92.9551 312.226L91.6028 311.679L90.219 311.17L88.8024 310.698L87.3519 310.262L85.8663 309.86L84.3446 309.491L82.786 309.153L81.1895 308.844L79.5546 308.562L77.8808 308.306L76.1675 308.073L74.4145 307.862L72.6218 307.669L70.7896 307.492L68.918 307.329L67.0078 307.177L65.0596 307.033L63.0746 306.894L61.0541 306.757L58.9997 306.619L56.9134 306.475L54.7974 306.324L52.6544 306.16L50.4874 305.981L48.2998 305.782L46.0952 305.559L43.8778 305.308L41.6521 305.025L39.423 304.707L37.1958 304.348L34.976 303.944L32.7696 303.492L30.5829 302.988L28.4223 302.428L26.2946 301.809L24.2066 301.126L22.1654 300.377L20.1781 299.56L18.2516 298.671L16.3931 297.709L14.6091 296.672L12.9064 295.56L11.2911 294.371L9.769 293.105L8.34547 291.764L7.0253 290.347L5.81267 288.857L4.71107 287.295L3.7233 285.664L2.8514 283.967L2.09663 282.207L1.45947 280.388L0.939593 278.515L0.535913 276.592L0.246579 274.624L0.0690238 272.615L0 270.57L0.035637 268.495L0.171498 266.395L0.402644 264.275L0.723703 262.14L1.12894 259.994L1.61233 257.843L2.16761 255.69L2.78839 253.541L3.46817 251.398L4.20042 249.266L4.97865 247.148L5.79643 245.047L6.64746 242.965L7.52561 240.905L8.42491 238.869L9.33965 236.859L10.2643 234.876L11.1938 232.921L12.1229 230.995L13.0472 229.099L13.9621 227.233L14.8637 225.396L15.7479 223.59L16.6114 221.813L17.4507 220.066L18.2629 218.347L19.0451 216.656L19.7949 214.991L20.5098 213.352L21.1878 211.738L21.827 210.147L22.4257 208.578L22.9822 207.029L23.4953 205.5L23.9637 203.988L24.3864 202.491L24.7623 201.009L25.0908 199.54L25.3711 198.081L25.6027 196.632L25.785 195.19L25.9178 193.754L26.0008 192.321L26.0338 190.891L26.0167 189.46L25.9497 188.029L25.8327 186.594L25.6661 185.154L25.4502 183.707L25.1854 182.251L24.8722 180.786L24.5112 179.308L24.1034 177.816L23.6494 176.31L23.1504 174.786L22.6076 173.243L22.0222 171.681L21.3958 170.097L20.7299 168.49L20.0265 166.859L19.2876 165.203L18.5154 163.521L17.7125 161.811L16.8815 160.072L16.0254 158.305L15.1474 156.508L14.2509 154.681L13.3398 152.825L12.4181 150.938L11.49 149.021L10.5601 147.075L9.63337 145.101L8.71488 143.099L7.81004 141.072L6.92452 139.019L6.0642 136.944L5.23515 134.849L4.44363 132.736L3.69603 130.608L2.99883 128.468L2.35855 126.321L1.7817 124.169L1.27473 122.017L0.843929 119.869L0.495419 117.729L0.235031 115.604L0.0682612 113.497L0.000193063 111.413L0.0354308 109.359L0.178032 107.338L0.431449 105.356L0.79847 103.418L1.28118 101.528L1.88091 99.6919L2.59823 97.913L3.43292 96.1957L4.38397 94.5433L5.44958 92.9591L6.62719 91.4457L7.91353 90.0053L9.30462 88.6396L10.7959 87.3498L12.3821 86.1364L14.0577 84.9995L15.8164 83.9387L17.6519 82.9531L19.5575 82.0413L21.5262 81.2013L23.551 80.4309L25.6248 79.7275L27.7407 79.0881L29.8915 78.5094L32.0707 77.988L34.2715 77.52L36.4876 77.1017L38.7131 76.729L40.9422 76.3978L43.1695 76.104L45.3901 75.8435L47.5992 75.6121L49.7927 75.4058L51.9666 75.2206L54.1176 75.0524L56.2425 74.8974L58.3385 74.752L60.4033 74.6125L62.4348 74.4755L64.4313 74.3375L66.3913 74.1955L68.3137 74.0463L70.1977 73.8871L72.0425 73.715L73.8478 73.5274L75.6134 73.3219L77.3393 73.096L79.0257 72.8475L80.673 72.5742L82.2816 72.2743L83.8522 71.9456L85.3856 71.5865L86.8825 71.1953L88.3441 70.7702L89.7714 70.31L91.1655 69.813L92.5277 69.2781L93.8592 68.7039L95.1615 68.0892L96.436 67.4331L97.684 66.7344L98.9073 65.9923L100.107 65.2059L101.286 64.3744L102.444 63.4973L103.584 62.5738L104.708 61.6036L105.817 60.5862L106.912 59.5215L107.997 58.4092L109.073 57.2493L110.141 56.042L111.204 54.7875L112.264 53.4863L113.322 52.139L114.381 50.7464L115.443 49.3095L116.509 47.8295L117.582 46.308L118.665 44.7466L119.758 43.1474L120.864 41.5126L121.986 39.8448L123.125 38.147L124.283 36.4224L125.462 34.6747L126.664 32.9077L127.892 31.1258L129.146 29.3337L130.428 27.5365L131.74 25.7396L133.084 23.9488L134.46 22.1704L135.87 20.4107L137.313 18.6765L138.792 16.975L140.307 15.3133L141.856 13.699L143.441 12.1397L145.062 10.6428L146.716 9.21623L148.403 7.86739L150.123 6.60372L151.872 5.43236L153.65 4.36015L155.454 3.39351L157.282 2.53837L159.131 1.80008L160.998 1.18335L162.879 0.692177L164.772 0.32977L166.673 0.0985307L168.579 0L170.485 0.034836L172.389 0.202806L174.286 0.502788L176.174 0.932792L178.048 1.48998L179.906 2.17074L181.744 2.97068L183.56 3.88475L185.35 4.90729L187.114 6.0321L188.848 7.25254L190.551 8.5616L192.221 9.95199L193.858 11.4162L195.459 12.9466L197.026 14.5357L198.557 16.1756L200.053 17.859L201.514 19.5785L202.94 21.3269L204.331 23.0972L205.69 24.8828L207.017 26.6775L208.314 28.4753L209.581 30.2705L210.821 32.0579L212.035 33.8325L213.225 35.59L214.393 37.3261L215.541 39.0372L216.671 40.7197L217.784 42.3705L218.883 43.9871L219.971 45.5668L221.048 47.1076L222.117 48.6076L223.181 50.0653L224.241 51.4792L225.299 52.8482L226.358 54.1716L227.419 55.4484L228.485 56.6783L229.557 57.8609L230.637 58.9959L231.727 60.0834L232.83 61.1234L233.946 62.1161L235.078 63.0618L236.227 63.9611L237.396 64.8143L238.585 65.6221L239.797 66.3853L241.033 67.1046L242.295 67.781L243.584 68.4153L244.901 69.0087L246.249 69.5623L247.627 70.0772L249.039 70.5548L250.484 70.9965L251.964 71.4037L253.479 71.7779L255.032 72.1209L256.622 72.4344L258.251 72.7202L259.919 72.9802L261.626 73.2167L263.372 73.4316L265.159 73.6275L266.985 73.8066L268.85 73.9717L270.754 74.1253L272.696 74.2704L274.676 74.4099L276.691 74.5469L278.74 74.6848L280.821 74.827L282.932 74.9769L285.071 75.1383L287.235 75.3149L289.419 75.5107L291.622 75.7296L293.837 75.9756L296.062 76.253L298.291 76.5658L300.519 76.9182L302.74 77.3142L304.949 77.758L307.139 78.2534L309.304 78.8043L311.438 79.4142L313.533 80.0866L315.582 80.8247L317.578 81.6311L319.515 82.5083L321.385 83.4585L323.181 84.4832L324.897 85.5837L326.527 86.7605L328.064 88.0138L329.503 89.3434L330.84 90.7483L332.07 92.227L333.19 93.7777L334.196 95.3979L335.086 97.0846L335.86 98.8345L336.516 100.644L337.054 102.509L337.476 104.424L337.784 106.386L337.979 108.389L338.065 110.428L338.046 112.498L337.925 114.595L337.709 116.712L337.402 118.845L337.01 120.989L336.538 123.14L335.994 125.293L335.383 127.443L334.713 129.587L333.988 131.721L333.217 133.841L332.405 135.945L331.559 138.03L330.685 140.094L329.788 142.134L328.876 144.148L327.952 146.136L327.023 148.095L326.094 150.026L325.168 151.927L324.252 153.798L323.348 155.639L322.46 157.45L321.593 159.231L320.75 160.983L319.933 162.707L319.146 164.403L318.391 166.071L317.67 167.714L316.986 169.332L316.341 170.927L315.736 172.499L315.172 174.051L314.652 175.584L314.177 177.098L313.747 178.597L313.363 180.081L313.027 181.553L312.739 183.013L312.5 184.463L312.31 185.906L312.169 187.344L312.078 188.777L312.037 190.207L312.034 190.663Z" fill="url(#paint0_linear_541_2025)"/>
<defs>
<linearGradient id="paint0_linear_541_2025" x1="175.357" y1="-30.8798" x2="241.277" y2="343.46" gradientUnits="userSpaceOnUse">
<stop stop-color="#DBCCED"/>
<stop offset="1" stop-color="#C9A896"/>
</linearGradient>
</defs>
</svg>
