<svg width="357" height="408" viewBox="0 0 357 408" fill="none" xmlns="http://www.w3.org/2000/svg">
<path fill-rule="evenodd" clip-rule="evenodd" d="M280.205 203.989V203.989L280.246 205.009L280.368 206.032L280.572 207.061L280.859 208.097L281.228 209.144L281.68 210.205L282.215 211.282L282.835 212.377L283.539 213.495L284.329 214.637L285.206 215.807L286.17 217.007L287.223 218.242L288.365 219.513L289.597 220.824L290.92 222.179L292.334 223.58L293.84 225.031L295.439 226.535L297.129 228.096L298.912 229.717L300.786 231.401L302.75 233.15L304.803 234.97L306.941 236.861L309.163 238.827L311.462 240.869L313.836 242.99L316.276 245.191L318.777 247.473L321.328 249.835L323.92 252.277L326.54 254.797L329.174 257.392L331.808 260.059L334.424 262.79L337.002 265.58L339.521 268.421L341.96 271.301L344.293 274.21L346.497 277.134L348.544 280.058L350.409 282.966L352.066 285.839L353.489 288.661L354.654 291.41L355.539 294.069L356.125 296.616L356.396 299.034L356.34 301.305L355.949 303.412L355.219 305.341L354.153 307.08L352.755 308.62L351.038 309.954L349.016 311.079L346.708 311.994L344.138 312.703L341.329 313.21L338.309 313.522L335.105 313.65L331.748 313.605L328.265 313.4L324.685 313.049L321.034 312.568L317.337 311.97L313.62 311.272L309.902 310.488L306.204 309.631L302.543 308.717L298.933 307.758L295.387 306.766L291.917 305.752L288.53 304.726L285.235 303.698L282.036 302.676L278.939 301.667L275.944 300.679L273.055 299.716L270.272 298.785L267.594 297.889L265.022 297.032L262.553 296.218L260.186 295.45L257.919 294.73L255.749 294.061L253.673 293.443L251.689 292.88L249.792 292.371L247.982 291.919L246.253 291.524L244.603 291.187L243.028 290.909L241.526 290.691L240.094 290.534L238.728 290.438L237.425 290.404L236.183 290.433L234.999 290.525L233.87 290.682L232.793 290.905L231.766 291.194L230.786 291.55L229.851 291.975L228.959 292.469L228.107 293.035L227.292 293.673L226.513 294.385L225.768 295.172L225.055 296.037L224.37 296.981L223.713 298.006L223.08 299.114L222.471 300.307L221.883 301.587L221.313 302.957L220.76 304.418L220.221 305.973L219.694 307.625L219.177 309.376L218.667 311.227L218.162 313.181L217.659 315.241L217.155 317.408L216.647 319.683L216.133 322.068L215.608 324.564L215.071 327.171L214.517 329.889L213.942 332.718L213.343 335.654L212.716 338.696L212.056 341.84L211.359 345.081L210.621 348.412L209.838 351.824L209.004 355.309L208.116 358.854L207.169 362.444L206.159 366.065L205.082 369.697L203.935 373.32L202.714 376.911L201.417 380.444L200.043 383.893L198.591 387.228L197.06 390.42L195.453 393.437L193.773 396.247L192.021 398.821L190.205 401.127L188.33 403.137L186.403 404.826L184.433 406.171L182.431 407.155L180.405 407.763L178.367 407.988L176.329 407.825L174.3 407.277L172.293 406.353L170.318 405.064L168.384 403.428L166.5 401.467L164.673 399.207L162.911 396.674L161.219 393.899L159.6 390.913L158.058 387.747L156.593 384.432L155.206 381L153.897 377.478L152.665 373.895L151.506 370.275L150.417 366.643L149.397 363.019L148.44 359.423L147.543 355.87L146.701 352.375L145.91 348.95L145.165 345.606L144.462 342.35L143.797 339.19L143.165 336.132L142.561 333.178L141.983 330.333L141.426 327.597L140.886 324.972L140.36 322.458L139.844 320.055L139.336 317.763L138.831 315.579L138.328 313.502L137.823 311.531L137.314 309.664L136.798 307.897L136.273 306.23L135.737 304.659L135.186 303.183L134.619 301.799L134.034 300.505L133.428 299.298L132.799 298.177L132.146 297.139L131.466 296.182L130.757 295.305L130.017 294.505L129.244 293.781L128.435 293.132L127.589 292.555L126.703 292.049L125.775 291.613L124.803 291.246L123.783 290.946L122.715 290.713L121.594 290.546L120.419 290.443L119.186 290.404L117.893 290.428L116.538 290.514L115.116 290.662L113.626 290.87L112.063 291.138L110.425 291.466L108.709 291.852L106.911 292.295L105.029 292.795L103.059 293.35L100.998 293.959L98.8426 294.62L96.591 295.332L94.2402 296.093L91.7878 296.899L89.2321 297.749L86.5715 298.639L83.8051 299.565L80.9328 300.523L77.9551 301.508L74.8735 302.514L71.6907 303.535L68.4105 304.562L65.0382 305.589L61.5806 306.605L58.0463 307.602L54.4457 308.567L50.7915 309.489L47.0981 310.356L43.3824 311.153L39.6634 311.866L35.9624 312.48L32.3026 312.981L28.7091 313.354L25.2088 313.582L21.8294 313.654L18.5997 313.554L15.5485 313.272L12.704 312.797L10.0936 312.121L7.74265 311.239L5.67387 310.147L3.90695 308.846L2.45773 307.339L1.3378 305.631L0.554173 303.731L0.109087 301.652L0 299.406L0.219729 297.011L0.75675 294.482L1.59562 291.84L2.71753 289.104L4.10089 286.293L5.72197 283.426L7.55559 280.522L9.5757 277.6L11.756 274.675L14.0706 271.763L16.494 268.877L19.0022 266.03L21.5724 263.231L24.1832 260.489L26.8153 257.812L29.451 255.206L32.0744 252.673L34.6714 250.219L37.2298 247.844L39.739 245.549L42.1896 243.335L44.5741 241.202L46.886 239.147L49.1199 237.169L51.2718 235.266L53.3382 233.436L55.3165 231.675L57.205 229.981L59.0024 228.35L60.7079 226.78L62.3211 225.267L63.842 223.808L65.2709 222.399L66.6082 221.037L67.8546 219.719L69.0107 218.442L70.0775 217.202L71.0558 215.996L71.9465 214.821L72.7505 213.675L73.4687 212.554L74.1017 211.455L74.6505 210.375L75.1156 209.312L75.4977 208.263L75.7972 207.225L76.0145 206.196L76.15 205.172L76.2038 204.151L76.176 203.131L76.0666 202.109L75.8753 201.081L75.602 200.046L75.2463 199.001L74.8077 197.943L74.2856 196.869L73.6795 195.777L72.9886 194.663L72.212 193.525L71.349 192.359L70.3987 191.164L69.3602 189.935L68.2326 188.67L67.0151 187.365L65.7068 186.018L64.3071 184.624L62.8156 183.181L61.2318 181.686L59.5557 180.134L57.7875 178.523L55.9279 176.85L53.978 175.111L51.9394 173.303L49.8145 171.423L47.6062 169.47L45.3186 167.439L42.9567 165.331L40.5263 163.143L38.0349 160.874L35.4911 158.524L32.9051 156.095L30.2886 153.587L27.6552 151.004L25.0202 148.348L22.4005 145.627L19.8152 142.845L17.2849 140.012L14.8319 137.138L12.48 134.232L10.2541 131.31L8.18007 128.385L6.2842 125.474L4.59263 122.593L3.13089 119.762L1.92325 117L0.992031 114.326L0.357012 111.759L0.0347688 109.319L0.0381236 107.024L0.375682 104.89L1.05149 102.932L2.06483 101.162L3.41021 99.5899L5.07746 98.2226L7.05204 97.0641L9.31548 96.1153L11.8459 95.3741L14.6187 94.8358L17.6071 94.4932L20.783 94.3366L24.1179 94.3549L27.5828 94.5351L31.1495 94.8634L34.791 95.3251L38.4815 95.9051L42.1972 96.5884L45.9161 97.3601L49.6185 98.2058L53.2869 99.1117L56.906 100.065L60.4626 101.052L63.9457 102.064L67.346 103.088L70.6562 104.116L73.8705 105.14L76.9847 106.151L79.9957 107.143L82.9017 108.11L85.7018 109.047L88.396 109.949L90.9851 110.812L93.4701 111.633L95.8531 112.409L98.136 113.136L100.321 113.814L102.412 114.44L104.411 115.012L106.321 115.53L108.145 115.991L109.887 116.395L111.549 116.742L113.136 117.029L114.649 117.256L116.092 117.423L117.469 117.529L118.781 117.573L120.032 117.554L121.226 117.472L122.363 117.325L123.448 117.113L124.483 116.835L125.47 116.489L126.412 116.075L127.311 115.592L128.17 115.038L128.99 114.412L129.774 113.711L130.525 112.936L131.243 112.084L131.933 111.152L132.594 110.14L133.23 109.046L133.843 107.867L134.435 106.601L135.007 105.245L135.563 103.799L136.104 102.259L136.632 100.622L137.151 98.8878L137.662 97.0527L138.168 95.1147L138.671 93.072L139.175 90.9225L139.682 88.6646L140.195 86.297L140.717 83.8187L141.252 81.2293L141.804 78.5288L142.375 75.718L142.97 72.7985L143.592 69.7729L144.246 66.6448L144.937 63.4192L145.668 60.1023L146.444 56.7021L147.269 53.2283L148.148 49.6924L149.085 46.108L150.085 42.491L151.151 38.8594L152.287 35.2335L153.496 31.636L154.781 28.0918L156.143 24.6276L157.583 21.2722L159.101 18.0556L160.695 15.0087L162.365 12.1631L164.105 9.54998L165.911 7.19953L167.778 5.14036L169.697 3.39857L171.66 1.99703L173.658 0.954659L175.681 0.285858L177.718 0L179.757 0.101127L181.787 0.587806L183.798 1.45318L185.78 2.68521L187.721 4.26706L189.614 6.17766L191.45 8.39237L193.222 10.8837L194.926 13.6221L196.557 16.5767L198.112 19.7161L199.589 23.009L200.988 26.4249L202.309 29.9344L203.554 33.5096L204.724 37.1249L205.824 40.7564L206.855 44.3828L207.821 47.9849L208.728 51.5458L209.578 55.0508L210.377 58.4875L211.129 61.8453L211.838 65.1154L212.509 68.2908L213.146 71.3659L213.754 74.3365L214.336 77.1995L214.896 79.9528L215.439 82.5954L215.967 85.1268L216.484 87.5471L216.993 89.8573L217.498 92.0584L218.001 94.1519L218.506 96.1397L219.014 98.0237L219.529 99.806L220.052 101.489L220.587 103.075L221.135 104.566L221.699 105.964L222.282 107.273L222.884 108.493L223.509 109.628L224.158 110.679L224.833 111.649L225.538 112.538L226.273 113.35L227.04 114.086L227.843 114.748L228.683 115.336L229.563 115.853L230.484 116.3L231.449 116.678L232.461 116.988L233.521 117.232L234.634 117.41L235.8 117.523L237.023 117.572L238.306 117.558L239.652 117.482L241.063 117.344L242.542 117.145L244.093 116.886L245.719 116.568L247.422 116.191L249.207 115.757L251.075 115.266L253.031 114.72L255.078 114.12L257.217 113.466L259.454 112.762L261.788 112.009L264.224 111.21L266.764 110.367L269.407 109.483L272.157 108.562L275.012 107.609L277.973 106.628L281.039 105.625L284.205 104.607L287.47 103.58L290.829 102.552L294.273 101.533L297.796 100.533L301.387 99.5619L305.033 98.632L308.721 97.7558L312.435 96.947L316.155 96.2196L319.86 95.5884L323.528 95.0683L327.134 94.6744L330.651 94.4217L334.051 94.3243L337.307 94.3958L340.388 94.6482L343.268 95.092L345.917 95.7355L348.311 96.5847L350.426 97.6429L352.242 98.9108L353.743 100.386L354.916 102.062L355.753 103.932L356.252 105.983L356.415 108.204L356.247 110.576L355.759 113.085L354.967 115.71L353.889 118.433L352.546 121.233L350.961 124.092L349.159 126.991L347.167 129.912L345.011 132.837L342.716 135.753L340.308 138.643L337.812 141.498L335.25 144.305L332.644 147.056L330.014 149.744L327.378 152.362L324.752 154.906L322.15 157.373L319.584 159.761L317.067 162.069L314.606 164.295L312.211 166.442L309.887 168.509L307.64 170.499L305.475 172.414L303.395 174.256L301.402 176.027L299.499 177.732L297.687 179.372L295.967 180.952L294.339 182.474L292.804 183.941L291.36 185.358L290.008 186.727L288.748 188.052L287.577 189.335L286.496 190.581L285.504 191.792L284.599 192.971L283.781 194.122L283.05 195.247L282.403 196.35L281.841 197.432L281.363 198.497L280.967 199.548L280.655 200.588L280.424 201.619L280.276 202.643L280.209 203.664L280.205 203.989Z" fill="url(#paint0_linear_541_2041)"/>
<defs>
<linearGradient id="paint0_linear_541_2041" x1="-1175.75" y1="1490.32" x2="-879.747" y2="1723.85" gradientUnits="userSpaceOnUse">
<stop stop-color="#94E0D1"/>
<stop offset="1" stop-color="#4DD1A1"/>
</linearGradient>
</defs>
</svg>
