<svg width="206" height="206" viewBox="0 0 206 206" fill="none" xmlns="http://www.w3.org/2000/svg">
<path fill-rule="evenodd" clip-rule="evenodd" d="M205.998 102.995L205.91 104.024L205.65 105.048L205.222 106.063L204.634 107.063L203.898 108.044L203.028 109.004L202.039 109.939L200.948 110.848L199.775 111.729L198.537 112.581L197.253 113.405L195.941 114.202L194.619 114.973L193.303 115.721L192.01 116.448L190.752 117.157L189.544 117.851L188.398 118.535L187.325 119.213L186.335 119.888L185.437 120.566L184.64 121.252L183.953 121.95L183.384 122.667L182.94 123.408L182.631 124.179L182.465 124.988L182.452 125.842L182.602 126.75L182.929 127.721L183.446 128.765L184.169 129.894L185.118 131.123L186.316 132.468L187.791 133.947L189.576 135.583L191.713 137.404L194.252 139.443L197.257 141.741L195.252 141.999L191.749 141.569L188.721 141.277L186.104 141.109L183.842 141.055L181.892 141.105L180.216 141.253L178.785 141.492L177.573 141.82L176.557 142.231L175.72 142.723L175.044 143.295L174.515 143.943L174.121 144.667L173.849 145.465L173.689 146.336L173.63 147.278L173.663 148.289L173.779 149.368L173.966 150.512L174.216 151.718L174.519 152.983L174.864 154.301L175.239 155.667L175.635 157.076L176.038 158.52L176.435 159.99L176.815 161.477L177.162 162.969L177.465 164.456L177.709 165.924L177.882 167.36L177.97 168.751L177.963 170.082L177.85 171.341L177.622 172.515L177.275 173.592L176.803 174.561L176.205 175.416L175.482 176.149L174.637 176.757L173.676 177.239L172.607 177.596L171.441 177.833L170.188 177.955L168.862 177.97L167.475 177.889L166.042 177.723L164.576 177.484L163.091 177.186L161.598 176.841L160.111 176.463L158.639 176.067L157.193 175.664L155.781 175.268L154.411 174.89L153.088 174.542L151.82 174.236L150.609 173.981L149.46 173.788L148.376 173.667L147.359 173.627L146.411 173.678L145.535 173.829L144.731 174.092L144.001 174.476L143.346 174.994L142.769 175.657L142.27 176.481L141.852 177.482L141.518 178.678L141.271 180.091L141.116 181.746L141.058 183.673L141.104 185.909L141.262 188.496L141.544 191.488L141.962 194.951L141.939 197.516L139.619 194.471L137.561 191.897L135.724 189.73L134.074 187.918L132.583 186.42L131.229 185.201L129.991 184.233L128.854 183.493L127.804 182.96L126.828 182.619L125.915 182.455L125.057 182.455L124.245 182.609L123.471 182.908L122.728 183.341L122.009 183.901L121.31 184.579L120.623 185.367L119.945 186.257L119.269 187.24L118.592 188.307L117.909 189.448L117.215 190.651L116.508 191.905L115.782 193.196L115.036 194.511L114.267 195.833L113.472 197.146L112.65 198.433L111.8 199.676L110.922 200.855L110.015 201.953L109.082 202.95L108.124 203.831L107.144 204.578L106.146 205.178L105.132 205.619L104.109 205.893L103.08 205.994L102.05 205.921L101.026 205.674L100.01 205.259L99.0092 204.683L98.026 203.959L97.0643 203.099L96.1271 202.119L95.2163 201.036L94.3333 199.868L93.4787 198.635L92.6523 197.353L91.8533 196.043L91.08 194.721L90.3305 193.405L89.6021 192.109L88.8919 190.848L88.1963 189.636L87.5116 188.484L86.8338 187.405L86.1583 186.408L85.4807 185.502L84.7959 184.697L84.0988 184.001L83.3839 183.422L82.6452 182.968L81.8764 182.648L81.0706 182.47L80.2203 182.444L79.3172 182.581L78.352 182.893L77.3142 183.394L76.192 184.1L74.9715 185.031L73.6368 186.208L72.1692 187.66L70.5462 189.419L68.741 191.526L66.7209 194.031L64.4457 196.996L63.9526 195.551L64.3949 192.006L64.6974 188.944L64.8745 186.296L64.9375 184.007L64.8954 182.034L64.7553 180.337L64.5228 178.888L64.2024 177.659L63.7978 176.629L63.3118 175.777L62.7466 175.089L62.1042 174.549L61.3861 174.145L60.5938 173.863L59.7288 173.695L58.7924 173.629L57.7864 173.655L56.7128 173.764L55.5739 173.946L54.3728 174.192L53.113 174.49L51.7989 174.832L50.4358 175.206L49.0299 175.6L47.5887 176.003L46.1205 176.401L44.6349 176.783L43.1425 177.133L41.655 177.44L40.1851 177.69L38.7458 177.868L37.3509 177.964L36.014 177.964L34.7487 177.86L33.5678 177.642L32.4829 177.304L31.5044 176.842L30.6405 176.254L29.8976 175.541L29.2795 174.705L28.7874 173.754L28.4203 172.693L28.1744 171.534L28.0437 170.288L28.0201 168.967L28.0939 167.585L28.2537 166.155L28.4873 164.691L28.7816 163.207L29.1231 161.714L29.4984 160.226L29.894 158.753L30.2968 157.304L30.6941 155.889L31.0738 154.515L31.4242 153.189L31.7343 151.916L31.9935 150.7L32.1918 149.546L32.3191 148.457L32.366 147.434L32.3227 146.481L32.1794 145.599L31.9261 144.789L31.552 144.053L31.0455 143.393L30.394 142.809L29.5832 142.304L28.5973 141.879L27.4176 141.539L26.023 141.285L24.3884 141.122L22.484 141.056L20.2745 141.093L17.7169 141.242L14.7591 141.514L11.3366 141.921L8.21227 142.134L11.2979 139.791L13.9066 137.714L16.1039 135.86L17.9422 134.196L19.4641 132.694L20.7043 131.329L21.6913 130.083L22.449 128.939L22.9974 127.882L23.3533 126.9L23.5311 125.983L23.5434 125.121L23.4011 124.305L23.114 123.528L22.6912 122.783L22.1412 122.063L21.4722 121.362L20.6924 120.675L19.81 119.996L18.8339 119.32L17.7732 118.644L16.638 117.961L15.4393 117.268L14.189 116.562L12.9002 115.838L11.5871 115.094L10.265 114.327L8.95036 113.534L7.66067 112.714L6.41403 111.866L5.22901 110.99L4.12424 110.086L3.11799 109.155L2.2277 108.199L1.46938 107.22L0.857166 106.223L0.4028 105.211L0.115172 104.188L0 103.159L0.0595894 102.13L0.292746 101.104L0.69482 100.088L1.2579 99.0855L1.97111 98.1007L2.82103 97.1373L3.79217 96.198L4.86751 95.2851L6.02898 94.3998L7.25803 93.543L8.536 92.7143L9.84458 91.9131L11.1661 91.1379L12.4839 90.3866L13.782 89.6567L15.0461 88.9451L16.2626 88.2485L17.4192 87.5631L18.5047 86.8848L19.5088 86.2093L20.4221 85.5321L21.2355 84.848L21.9407 84.1521L22.5294 83.4388L22.9936 82.7023L23.3249 81.9361L23.5143 81.1335L23.5525 80.2871L23.4286 79.3885L23.1309 78.4286L22.6456 77.397L21.9565 76.282L21.0449 75.0699L19.8882 73.7449L18.4596 72.2886L16.7262 70.6789L14.6485 68.8893L12.1772 66.8877L9.25153 64.6346L10.1365 63.9081L13.7228 64.3622L16.821 64.6753L19.4999 64.8619L21.8152 64.9337L23.8126 64.8996L25.5297 64.7671L26.9979 64.5418L28.2435 64.2283L29.289 63.8303L30.1537 63.3506L30.8544 62.7917L31.4056 62.1553L31.8206 61.4432L32.1112 60.6568L32.2884 59.7975L32.3624 58.8668L32.3432 57.8663L32.2405 56.7979L32.0638 55.6642L31.8229 54.4679L31.5279 53.2126L31.1891 51.9026L30.8175 50.5432L30.4246 49.1405L30.0222 47.7018L29.6229 46.2354L29.2397 44.7508L28.8859 43.2585L28.5751 41.7702L28.3207 40.2984L28.136 38.8562L28.0336 37.4572L28.025 36.1153L28.1206 34.8438L28.3291 33.6557L28.6571 32.5628L29.1091 31.5754L29.6871 30.7022L30.3905 29.9495L31.2164 29.3213L32.1593 28.8192L33.2113 28.4423L34.3628 28.1869L35.6026 28.0473L36.9181 28.0155L38.296 28.0819L39.7226 28.2353L41.1843 28.4635L42.6676 28.7534L44.1597 29.0917L45.6487 29.4648L47.1235 29.8593L48.5743 30.262L49.9923 30.6602L51.3697 31.0417L52.7001 31.3949L53.9777 31.7086L55.1979 31.9722L56.357 32.1757L57.4517 32.309L58.4794 32.3626L59.4382 32.3269L60.3261 32.192L61.1417 31.9478L61.8836 31.5837L62.5503 31.0882L63.1402 30.4487L63.6517 29.6512L64.0826 28.6798L64.4301 27.5164L64.691 26.1398L64.8611 24.5253L64.9351 22.6436L64.9065 20.4598L64.7668 17.9317L64.5057 15.0079L64.1097 11.6252L63.6596 7.94095L66.026 11.0679L68.1226 13.712L69.9924 15.94L71.6702 17.8052L73.1848 19.3509L74.5596 20.6123L75.8146 21.6186L76.9665 22.3938L78.0298 22.9582L79.017 23.3289L79.9388 23.5204L80.805 23.5454L81.6241 23.415L82.4039 23.1392L83.1515 22.7269L83.8733 22.1867L84.5755 21.5269L85.2636 20.7556L85.9429 19.8811L86.6186 18.912L87.2952 17.8577L87.9772 16.7281L88.6689 15.5341L89.3741 14.2874L90.0963 13.0012L90.8388 11.6894L91.6042 10.3674L92.3949 9.05159L93.2125 7.75926L94.058 6.50852L94.932 5.3179L95.834 4.20606L96.763 3.19132L97.7172 2.29118L98.6939 1.52181L99.6898 0.897496L100.701 0.430194L101.723 0.129036L102.752 0L103.781 0.0456701L104.807 0.26513L105.824 0.654002L106.828 1.20462L107.814 1.90633L108.78 2.74591L109.721 3.70801L110.636 4.7757L111.523 5.931L112.383 7.15534L113.213 8.43009L114.017 9.7369L114.794 11.058L115.547 12.3767L116.279 13.677L116.992 14.9442L117.689 16.165L118.375 17.3268L119.054 18.4184L119.73 19.4293L120.407 20.3501L121.09 21.1718L121.785 21.8859L122.496 22.4842L123.231 22.9587L123.994 23.3008L124.794 23.5019L125.636 23.5524L126.531 23.4419L127.485 23.1586L128.511 22.6887L129.619 22.0165L130.822 21.1234L132.138 19.9872L133.583 18.5812L135.179 16.8735L136.954 14.8249L138.937 12.387L141.168 9.50007L142.127 9.82468L141.661 13.4533L141.338 16.5877L141.141 19.2978L141.061 21.6403L141.087 23.6615L141.212 25.3997L141.43 26.8867L141.736 28.1491L142.128 29.2099L142.601 30.0883L143.154 30.8015L143.784 31.3641L144.49 31.7895L145.271 32.0896L146.124 32.2754L147.049 32.3573L148.044 32.3452L149.107 32.2487L150.236 32.0775L151.427 31.8414L152.678 31.5503L153.984 31.2147L155.34 30.8453L156.739 30.4536L158.175 30.0515L159.64 29.6515L161.123 29.2665L162.615 28.9099L164.104 28.5951L165.578 28.3358L167.023 28.1451L168.426 28.0356L169.773 28.0192L171.051 28.1062L172.246 28.3054L173.347 28.6237L174.343 29.0657L175.225 29.6336L175.988 30.3272L176.626 31.1435L177.138 32.0773L177.525 33.121L177.79 34.265L177.938 35.4982L177.978 36.8081L177.92 38.1815L177.773 39.6048L177.55 41.0642L177.264 42.5462L176.929 44.0381L176.559 45.5277L176.165 47.0041L175.763 48.4571L175.364 49.878L174.981 51.2589L174.625 52.5932L174.308 53.8752L174.039 55.1002L173.831 56.2642L173.692 57.3642L173.631 58.3973L173.66 59.3616L173.786 60.2552L174.021 61.0767L174.375 61.8244L174.86 62.4972L175.488 63.0933L176.272 63.6111L177.229 64.0485L178.376 64.4028L179.735 64.6707L181.33 64.8482L183.189 64.9301L185.347 64.9099L187.846 64.7795L190.736 64.5284L194.08 64.1438L197.954 63.6088L195.155 65.8453L192.475 67.9617L190.216 69.8481L188.324 71.5402L186.754 73.0668L185.471 74.452L184.446 75.7158L183.653 76.8755L183.072 77.9453L182.687 78.9381L182.481 79.8648L182.444 80.7351L182.562 81.5576L182.827 82.3403L183.228 83.0902L183.759 83.8139L184.409 84.5174L185.172 85.2064L186.038 85.8863L187 86.562L188.048 87.2384L189.172 87.9198L190.362 88.6106L191.604 89.3146L192.888 90.0353L194.198 90.7761L195.52 91.5396L196.837 92.3282L198.132 93.1436L199.387 93.9869L200.583 94.8586L201.702 95.7584L202.725 96.6853L203.635 97.6376L204.415 98.6125L205.051 99.6071L205.531 100.617L205.846 101.639L205.989 102.667L205.998 102.995Z" fill="url(#paint0_linear_511_2)"/>
<defs>
<linearGradient id="paint0_linear_511_2" x1="162.399" y1="236.472" x2="332.208" y2="119.854" gradientUnits="userSpaceOnUse">
<stop stop-color="#D6B683"/>
<stop offset="1" stop-color="#264D5E"/>
</linearGradient>
</defs>
</svg>
