<svg width="203" height="203" viewBox="0 0 203 203" fill="none" xmlns="http://www.w3.org/2000/svg">
<path fill-rule="evenodd" clip-rule="evenodd" d="M202.246 101.013V101.013L198.338 101.984L194.682 102.882L191.258 103.715L188.048 104.487L185.036 105.206L182.207 105.877L179.548 106.504L177.047 107.091L174.692 107.642L172.474 108.16L170.383 108.649L168.41 109.112L166.548 109.551L164.789 109.968L163.127 110.366L161.555 110.746L160.068 111.111L158.661 111.461L157.328 111.799L156.066 112.126L154.87 112.443L153.736 112.751L152.661 113.052L151.642 113.346L150.674 113.635L149.757 113.918L148.886 114.198L148.059 114.475L147.274 114.749L146.529 115.021L145.822 115.292L145.15 115.563L144.513 115.834L143.908 116.105L143.334 116.377L142.789 116.651L142.273 116.926L141.782 117.204L141.318 117.485L140.878 117.77L140.461 118.058L140.066 118.35L139.692 118.646L139.339 118.947L139.005 119.253L138.69 119.565L138.392 119.883L138.112 120.207L137.848 120.537L137.6 120.874L137.367 121.218L137.148 121.57L136.943 121.929L136.751 122.297L136.572 122.672L136.405 123.057L136.25 123.45L136.106 123.853L135.973 124.265L135.85 124.687L135.736 125.12L135.632 125.562L135.537 126.016L135.45 126.48L135.371 126.956L135.3 127.444L135.236 127.943L135.179 128.454L135.128 128.978L135.083 129.515L135.044 130.064L135.01 130.627L134.98 131.203L134.955 131.793L134.933 132.397L134.916 133.015L134.901 133.648L134.889 134.295L134.879 134.958L134.87 135.635L134.863 136.328L134.857 137.036L134.852 137.759L134.846 138.499L134.839 139.254L134.832 140.026L134.823 140.813L134.812 141.617L134.798 142.437L134.781 143.273L134.76 144.126L134.735 144.995L134.706 145.88L134.671 146.781L134.63 147.698L134.582 148.631L134.528 149.579L134.465 150.543L134.395 151.522L134.315 152.516L134.226 153.525L134.126 154.548L134.016 155.584L133.894 156.634L133.76 157.696L133.613 158.771L133.453 159.857L133.279 160.954L133.09 162.061L132.885 163.178L132.665 164.303L132.428 165.435L132.174 166.575L131.903 167.72L131.613 168.869L131.304 170.022L130.976 171.178L130.629 172.334L130.261 173.49L129.872 174.645L129.462 175.797L129.031 176.944L128.578 178.086L128.103 179.22L127.606 180.346L127.086 181.461L126.543 182.564L125.978 183.654L125.39 184.728L124.779 185.784L124.146 186.822L123.49 187.84L122.811 188.835L122.11 189.806L121.388 190.752L120.644 191.67L119.879 192.559L119.093 193.417L118.287 194.243L117.462 195.034L116.618 195.79L115.756 196.509L114.877 197.189L113.981 197.829L113.07 198.428L112.145 198.984L111.206 199.496L110.255 199.964L109.292 200.385L108.319 200.76L107.337 201.087L106.347 201.365L105.351 201.595L104.35 201.774L103.344 201.904L102.336 201.984L101.326 202.013L100.316 201.992L99.3075 201.92L98.3014 201.798L97.2991 201.626L96.3019 201.405L95.3111 201.134L94.3278 200.815L93.3534 200.448L92.389 200.034L91.4358 199.574L90.4948 199.069L89.5671 198.519L88.6537 197.927L87.7557 197.294L86.8739 196.62L86.0091 195.907L85.1623 195.157L84.3341 194.371L83.5251 193.551L82.7362 192.698L81.9677 191.814L81.2203 190.9L80.4942 189.959L79.79 188.992L79.108 188L78.4483 186.986L77.8112 185.951L77.1967 184.897L76.6051 183.826L76.0362 182.739L75.4901 181.638L74.9667 180.524L74.4658 179.4L73.9872 178.267L73.5307 177.126L73.0961 175.98L72.683 174.829L72.2909 173.674L71.9197 172.518L71.5688 171.362L71.2377 170.206L70.926 169.053L70.6332 167.902L70.3588 166.757L70.1021 165.617L69.8626 164.483L69.6398 163.357L69.433 162.239L69.2416 161.13L69.0649 160.031L68.9025 158.943L68.7535 157.867L68.6175 156.802L68.4937 155.751L68.3815 154.712L68.2803 153.687L68.1895 152.676L68.1083 151.68L68.0362 150.698L67.9726 149.732L67.9168 148.781L67.8682 147.845L67.8263 146.926L67.7904 146.022L67.7599 145.134L67.7344 144.263L67.7132 143.408L67.6957 142.569L67.6815 141.747L67.6699 140.94L67.6606 140.15L67.6528 139.376L67.6463 138.618L67.6404 137.876L67.6346 137.15L67.6286 136.439L67.6218 135.744L67.6138 135.064L67.6041 134.4L67.5923 133.75L67.5779 133.115L67.5606 132.495L67.5398 131.888L67.5153 131.296L67.4864 130.718L67.453 130.153L67.4144 129.601L67.3704 129.063L67.3205 128.537L67.2643 128.023L67.2014 127.522L67.1314 127.033L67.0538 126.555L66.9684 126.089L66.8745 125.634L66.7719 125.19L66.66 124.756L66.5385 124.332L66.4068 123.918L66.2645 123.514L66.1111 123.119L65.9461 122.733L65.7691 122.356L65.5794 121.987L65.3766 121.627L65.1601 121.274L64.9292 120.928L64.6834 120.59L64.422 120.259L64.1443 119.934L63.8497 119.615L63.5373 119.303L63.2065 118.996L62.8564 118.694L62.4861 118.396L62.0947 118.104L61.6813 117.815L61.2448 117.53L60.7842 117.249L60.2983 116.97L59.7859 116.694L59.2458 116.42L58.6764 116.148L58.0765 115.877L57.4445 115.606L56.7786 115.336L56.0772 115.065L55.3383 114.792L54.56 114.519L53.74 114.242L52.8762 113.963L51.966 113.68L51.0068 113.393L49.9957 113.099L48.9297 112.8L47.8056 112.493L46.6197 112.177L45.3684 111.852L44.0474 111.516L42.6524 111.167L41.1785 110.805L39.6207 110.428L37.9733 110.033L36.2303 109.619L34.385 109.184L32.4303 108.725L30.3585 108.24L28.1611 107.726L25.8289 107.181L23.3517 106.6L20.7187 105.98L17.9178 105.316L14.9357 104.605L11.7582 103.842L8.36923 103.019L4.75141 102.132L0.885498 101.173L3.54789 100.192L7.24256 99.2829L10.7024 98.4407L13.9455 97.6588L16.9882 96.9316L19.8453 96.2537L22.5305 95.6204L25.056 95.0274L27.4333 94.4709L29.6726 93.9473L31.7835 93.4536L33.7746 92.9869L35.6539 92.5444L37.4288 92.1239L39.106 91.7232L40.6917 91.3402L42.1917 90.9733L43.6113 90.6206L44.9553 90.2807L46.2284 89.9521L47.4347 89.6337L48.5781 89.3241L49.6623 89.0222L50.6905 88.7271L51.6659 88.4378L52.5914 88.1534L53.4698 87.873L54.3034 87.596L55.0948 87.3215L55.846 87.0489L56.5591 86.7776L57.2361 86.507L57.8788 86.2364L58.4887 85.9654L59.0676 85.6934L59.6169 85.42L60.138 85.1447L60.6322 84.867L61.1008 84.5865L61.5448 84.3028L61.9655 84.0154L62.3638 83.7242L62.7407 83.4285L63.0971 83.1281L63.434 82.8226L63.7521 82.5117L64.0523 82.195L64.3353 81.8723L64.6018 81.543L64.8525 81.2071L65.0881 80.864L65.3092 80.5136L65.5163 80.1555L65.7101 79.7893L65.8911 79.4149L66.0598 79.0318L66.2168 78.6398L66.3626 78.2386L66.4976 77.8279L66.6224 77.4073L66.7373 76.9767L66.8428 76.5357L66.9394 76.084L67.0275 75.6213L67.1075 75.1473L67.1799 74.6618L67.245 74.1644L67.3033 73.655L67.3552 73.1331L67.401 72.5986L67.4413 72.0512L67.4763 71.4906L67.5066 70.9165L67.5324 70.3287L67.5544 69.727L67.5728 69.1111L67.588 68.4807L67.6006 67.8357L67.6109 67.1758L67.6194 66.5009L67.6265 65.8107L67.6328 65.105L67.6385 64.3838L67.6443 63.6468L67.6506 62.8939L67.6579 62.125L67.6667 61.3401L67.6775 60.5389L67.6908 59.7215L67.7072 58.8879L67.7272 58.0379L67.7513 57.1718L67.7801 56.2894L67.8142 55.3909L67.8542 54.4764L67.9006 53.546L67.954 52.5999L68.015 51.6384L68.0844 50.6616L68.1626 49.6699L68.2503 48.6636L68.3481 47.643L68.4568 46.6087L68.5768 45.561L68.7088 44.5005L68.8536 43.4278L69.0117 42.3434L69.1837 41.2481L69.3704 40.1425L69.5722 39.0274L69.7899 37.9037L70.024 36.7723L70.2751 35.634L70.5439 34.4899L70.8308 33.341L71.1364 32.1885L71.4612 31.0335L71.8057 29.8772L72.1705 28.7208L72.5558 27.5658L72.9622 26.4134L73.3899 25.2651L73.8394 24.1223L74.3109 22.9866L74.8047 21.8595L75.321 20.7426L75.8598 19.6375L76.4214 18.5459L77.0058 17.4693L77.613 16.4096L78.2429 15.3685L78.8954 14.3476L79.5704 13.3487L80.2676 12.3735L80.9867 11.4237L81.7273 10.5012L82.4892 9.6075L83.2716 8.74437L84.0743 7.91344L84.8964 7.11634L85.7374 6.35463L86.5965 5.62985L87.473 4.94346L88.366 4.29688L89.2745 3.69146L90.1978 3.12848L91.1346 2.60913L92.0841 2.13454L93.0451 1.70573L94.0164 1.32364L94.997 0.989118L95.9855 0.702898L96.9808 0.465619L97.9816 0.277813L98.9867 0.139902L99.9946 0.0521957L101.004 0.0148926L102.014 0.0280766L103.023 0.0917182L104.03 0.205673L105.033 0.369686L106.031 0.583386L107.023 0.846296L108.007 1.15783L108.983 1.51729L109.949 1.92389L110.904 2.37673L111.847 2.87482L112.777 3.4171L113.693 4.0024L114.593 4.62947L115.478 5.29701L116.345 6.00363L117.195 6.74789L118.026 7.52827L118.838 8.34324L119.631 9.19118L120.402 10.0705L121.153 10.9795L121.883 11.9164L122.59 12.8797L123.276 13.8674L123.939 14.8781L124.58 15.9098L125.198 16.9608L125.793 18.0295L126.366 19.1141L126.915 20.213L127.442 21.3245L127.947 22.4469L128.429 23.5787L128.889 24.7183L129.327 25.8641L129.744 27.0147L130.139 28.1687L130.514 29.3246L130.868 30.4811L131.202 31.6369L131.517 32.7908L131.812 33.9415L132.09 35.088L132.349 36.2292L132.591 37.364L132.817 38.4915L133.026 39.6108L133.22 40.721L133.399 41.8214L133.564 42.9111L133.715 43.9895L133.853 45.0559L133.978 46.1097L134.092 47.1505L134.195 48.1777L134.288 49.1909L134.37 50.1896L134.444 51.1736L134.509 52.1424L134.566 53.0959L134.616 54.0338L134.658 54.9559L134.695 55.8621L134.727 56.7522L134.753 57.6261L134.775 58.4838L134.793 59.3252L134.807 60.1504L134.819 60.9593L134.829 61.752L134.837 62.5286L134.844 63.2891L134.85 64.0336L134.855 64.7624L134.861 65.4755L134.868 66.173L134.876 66.8552L134.885 67.5223L134.897 68.1744L134.911 68.8117L134.927 69.4345L134.948 70.043L134.972 70.6374L135 71.218L135.032 71.785L135.07 72.3387L135.113 72.8794L135.162 73.4072L135.217 73.9225L135.279 74.4256L135.348 74.9168L135.424 75.3962L135.508 75.8643L135.601 76.3212L135.702 76.7673L135.813 77.2029L135.933 77.6282L136.063 78.0436L136.203 78.4493L136.355 78.8456L136.518 79.2329L136.693 79.6115L136.881 79.9815L137.081 80.3435L137.296 80.6975L137.524 81.0441L137.767 81.3834L138.026 81.7158L138.301 82.0416L138.593 82.3612L138.903 82.6748L139.231 82.9828L139.578 83.2856L139.945 83.5835L140.333 83.8768L140.742 84.166L141.175 84.4513L141.632 84.7333L142.114 85.0123L142.622 85.2887L143.157 85.563L143.722 85.8356L144.317 86.107L144.944 86.3777L145.604 86.6482L146.3 86.9192L147.032 87.1911L147.804 87.4645L148.618 87.7403L149.474 88.0189L150.377 88.3013L151.328 88.5882L152.331 88.8804L153.388 89.1789L154.502 89.4847L155.678 89.7988L156.919 90.1224L158.228 90.4567L159.611 90.8031L161.072 91.163L162.616 91.5381L164.249 91.9301L165.976 92.3409L167.805 92.7726L169.742 93.2274L171.794 93.7079L173.971 94.2168L176.281 94.7571L178.735 95.3322L181.342 95.9458L184.115 96.6018L187.068 97.3049L190.213 98.06L193.567 98.8726L197.147 99.7489L200.972 100.696L202.246 101.013Z" fill="url(#paint0_linear_541_2042)"/>
<defs>
<linearGradient id="paint0_linear_541_2042" x1="-209.708" y1="138.321" x2="-320.489" y2="-30.3612" gradientUnits="userSpaceOnUse">
<stop stop-color="#8F004D"/>
<stop offset="1" stop-color="#7AA352"/>
</linearGradient>
</defs>
</svg>
