<svg width="309" height="309" viewBox="0 0 309 309" fill="none" xmlns="http://www.w3.org/2000/svg">
<path fill-rule="evenodd" clip-rule="evenodd" d="M301.027 154.029L301.104 155.5L301.322 156.976L301.661 158.46L302.1 159.956L302.62 161.465L303.199 162.991L303.82 164.532L304.462 166.09L305.105 167.663L305.729 169.251L306.316 170.849L306.847 172.456L307.302 174.068L307.665 175.68L307.918 177.288L308.046 178.885L308.034 180.466L307.871 182.024L307.544 183.554L307.045 185.048L306.367 186.5L305.505 187.903L304.458 189.252L303.225 190.541L301.81 191.765L300.216 192.919L298.451 194L296.524 195.005L294.446 195.932L292.229 196.78L289.888 197.549L287.437 198.24L284.893 198.854L282.271 199.394L279.589 199.863L276.864 200.266L274.11 200.605L271.346 200.888L268.585 201.119L265.844 201.305L263.135 201.451L260.471 201.565L257.865 201.652L255.326 201.719L252.865 201.774L250.49 201.822L248.209 201.871L246.029 201.927L243.956 201.997L241.995 202.087L240.151 202.204L238.428 202.354L236.829 202.544L235.357 202.781L234.017 203.072L232.811 203.423L231.741 203.842L230.812 204.336L230.026 204.915L229.388 205.587L228.902 206.361L228.572 207.248L228.406 208.26L228.41 209.411L228.592 210.714L228.962 212.187L229.531 213.848L230.314 215.72L231.324 217.826L232.583 220.196L234.11 222.863L235.933 225.867L238.082 229.252L240.594 233.073L243.512 237.393L246.887 242.289L250.782 247.85L255.271 254.186L254.725 255.659L248.322 251.119L242.703 247.18L237.758 243.765L233.395 240.813L229.537 238.271L226.119 236.094L223.087 234.247L220.394 232.697L218.002 231.418L215.876 230.388L213.987 229.588L212.31 229.002L210.822 228.617L209.506 228.42L208.344 228.403L207.321 228.556L206.425 228.872L205.642 229.346L204.962 229.972L204.377 230.746L203.876 231.664L203.451 232.723L203.095 233.919L202.8 235.248L202.559 236.709L202.365 238.298L202.212 240.012L202.092 241.847L202 243.798L201.929 245.863L201.872 248.034L201.823 250.307L201.775 252.675L201.721 255.129L201.655 257.662L201.57 260.264L201.459 262.923L201.315 265.629L201.133 268.369L200.906 271.128L200.627 273.893L200.292 276.648L199.895 279.376L199.432 282.062L198.897 284.689L198.289 287.24L197.605 289.699L196.842 292.05L196 294.277L195.079 296.366L194.08 298.306L193.005 300.084L191.857 301.692L190.638 303.122L189.354 304.369L188.01 305.431L186.611 306.307L185.162 307L183.672 307.513L182.145 307.853L180.588 308.03L179.009 308.053L177.413 307.936L175.806 307.692L174.194 307.337L172.582 306.889L170.974 306.364L169.375 305.78L167.787 305.158L166.212 304.516L164.653 303.873L163.11 303.25L161.584 302.666L160.073 302.141L158.576 301.695L157.091 301.348L155.615 301.119L154.144 301.03L152.673 301.095L151.198 301.303L149.715 301.633L148.22 302.065L146.712 302.578L145.188 303.154L143.648 303.772L142.091 304.413L140.519 305.057L138.933 305.683L137.335 306.274L135.728 306.81L134.117 307.272L132.504 307.642L130.896 307.905L129.298 308.043L127.716 308.043L126.155 307.892L124.623 307.579L123.126 307.093L121.671 306.43L120.263 305.583L118.91 304.551L117.616 303.333L116.387 301.932L115.227 300.352L114.14 298.6L113.129 296.685L112.195 294.619L111.341 292.413L110.565 290.081L109.868 287.639L109.248 285.101L108.702 282.485L108.228 279.807L107.821 277.084L107.476 274.333L107.189 271.569L106.954 268.807L106.765 266.064L106.616 263.352L106.5 260.684L106.411 258.072L106.342 255.528L106.287 253.06L106.238 250.678L106.19 248.39L106.134 246.202L106.066 244.12L105.978 242.15L105.863 240.296L105.716 238.563L105.529 236.954L105.296 235.472L105.01 234.121L104.664 232.904L104.251 231.824L103.762 230.883L103.191 230.086L102.527 229.436L101.761 228.937L100.883 228.595L99.8814 228.416L98.7425 228.406L97.452 228.573L95.9933 228.928L94.3479 229.481L92.4942 230.246L90.4075 231.238L88.0596 232.475L85.4173 233.981L82.4422 235.779L79.0892 237.901L75.3052 240.382L71.0273 243.266L66.1808 246.603L60.6763 250.454L54.4062 254.892L52.0076 255.275L56.5988 248.804L60.583 243.127L64.0368 238.132L67.0237 233.726L69.597 229.83L71.8013 226.379L73.674 223.318L75.2467 220.6L76.5462 218.185L77.5951 216.039L78.4125 214.132L79.0148 212.438L79.4158 210.937L79.6271 209.608L79.6587 208.434L79.5191 207.401L79.2154 206.494L78.7538 205.703L78.1395 205.016L77.377 204.423L76.4703 203.915L75.4229 203.485L74.238 203.123L72.9188 202.824L71.4682 202.579L69.8893 202.382L68.1855 202.225L66.3602 202.103L64.4176 202.01L62.362 201.937L60.1987 201.879L57.9336 201.83L55.5733 201.782L53.1254 201.728L50.5984 201.663L48.002 201.58L45.3466 201.471L42.6439 201.331L39.9066 201.152L37.1483 200.928L34.3834 200.654L31.6274 200.324L28.8961 199.932L26.206 199.474L23.5737 198.945L21.016 198.343L18.5494 197.665L16.1897 196.908L13.9523 196.073L11.8512 195.158L9.89935 194.165L8.10787 193.096L6.4862 191.953L5.04173 190.74L3.77965 189.461L2.70287 188.122L1.81194 186.726L1.105 185.282L0.577876 183.794L0.224085 182.27L0.0350031 180.716L0 179.138L0.106628 177.543L0.340827 175.937L0.687139 174.325L1.12893 172.713L1.64863 171.105L2.22789 169.504L2.84782 167.915L3.48915 166.34L4.13233 164.779L4.75768 163.235L5.34544 161.707L5.87582 160.195L6.32896 158.697L6.68495 157.211L6.92371 155.735L7.02487 154.264L6.97185 152.793L6.77469 151.319L6.45385 149.836L6.02949 148.342L5.52156 146.835L4.94993 145.312L4.3344 143.773L3.69476 142.218L3.05071 140.647L2.42186 139.062L1.82757 137.465L1.28688 135.859L0.818323 134.248L0.439741 132.635L0.168093 131.027L0.0192329 129.427L0.00768978 127.843L0.146449 126.281L0.44674 124.747L0.917846 123.247L1.56694 121.788L2.39895 120.376L3.41648 119.018L4.61974 117.719L6.00657 116.485L7.5725 115.319L9.31081 114.226L11.2127 113.209L13.2676 112.269L15.4631 111.408L17.7854 110.627L20.2197 109.924L22.7501 109.297L25.3604 108.746L28.0339 108.266L30.7539 107.853L33.5038 107.504L36.2676 107.212L39.0296 106.973L41.7751 106.781L44.4903 106.629L47.162 106.511L49.7785 106.42L52.3286 106.35L54.8027 106.293L57.1918 106.245L59.488 106.196L61.6844 106.142L63.7748 106.075L65.754 105.988L67.6171 105.876L69.36 105.731L70.9791 105.548L72.4709 105.319L73.8323 105.037L75.0602 104.696L76.1518 104.289L77.1036 103.807L77.9125 103.242L78.5744 102.586L79.0852 101.829L79.4398 100.96L79.6324 99.9686L79.6562 98.8411L79.5031 97.5632L79.1638 96.1187L78.627 94.4888L77.8797 92.6525L76.9065 90.5855L75.6891 88.2595L74.2061 85.642L72.4322 82.6949L70.3373 79.3739L67.886 75.6263L65.0361 71.3903L61.7374 66.5922L57.9299 61.1437L53.5412 54.939L52.2277 51.6158L58.7679 56.2591L64.5036 60.2887L69.5492 63.7822L73.9995 66.8042L77.9335 69.4087L81.4176 71.6409L84.5078 73.5388L87.2516 75.1344L89.6895 76.4547L91.8561 77.5228L93.7811 78.3581L95.4905 78.977L97.0064 79.3935L98.3486 79.6195L99.5342 79.6651L100.578 79.5388L101.494 79.248L102.295 78.7988L102.99 78.1964L103.59 77.4456L104.104 76.5502L104.54 75.5139L104.907 74.3399L105.211 73.0313L105.46 71.591L105.661 70.0223L105.82 68.3282L105.944 66.5125L106.04 64.579L106.114 62.5323L106.173 60.3774L106.223 58.1201L106.271 55.7671L106.323 53.3259L106.387 50.8049L106.469 48.2136L106.575 45.5625L106.713 42.8632L106.889 40.1281L107.109 37.3709L107.378 34.606L107.704 31.8487L108.091 29.1149L108.544 26.4209L109.066 23.7834L109.663 21.2192L110.335 18.7447L111.085 16.3759L111.914 14.1282L112.823 12.0158L113.809 10.0516L114.872 8.247L116.01 6.61151L117.217 5.1527L118.491 3.87596L119.826 2.78438L121.217 1.87868L122.658 1.15722L124.142 0.615979L125.664 0.248674L127.216 0.0468394L128.792 0L130.386 0.0958451L131.991 0.320434L133.603 0.658414L135.215 1.09324L136.824 1.60739L138.425 2.1826L140.015 2.79999L141.592 3.44033L143.154 4.08409L144.699 4.71158L146.228 5.30306L147.741 5.83873L149.24 6.29875L150.727 6.66321L152.204 6.91204L153.676 7.02492L155.146 6.9842L156.62 6.79777L158.102 6.48603L159.594 6.06918L161.101 5.56718L162.622 4.9999L164.16 4.38714L165.714 3.74869L167.284 3.10428L168.868 2.4735L170.464 1.87575L172.069 1.33011L173.68 0.855146L175.293 0.468765L176.902 0.188005L178.502 0.0288151L180.087 0.00583946L181.652 0.132193L183.189 0.419254L184.692 0.876466L186.154 1.51118L187.57 2.32849L188.932 3.33121L190.236 4.51972L191.476 5.89207L192.647 7.44395L193.746 9.16884L194.769 11.0581L195.715 13.1012L196.582 15.286L197.37 17.5987L198.08 20.0247L198.712 22.5481L199.269 25.1526L199.755 27.8217L200.173 30.5386L200.527 33.2867L200.823 36.0499L201.066 38.8126L201.262 41.56L201.417 44.2781L201.538 46.9537L201.63 49.575L201.702 52.1308L201.759 54.6112L201.808 57.0074L201.856 59.3113L201.91 61.5159L201.976 63.615L202.061 65.6031L202.17 67.4756L202.312 69.2283L202.492 70.8573L202.718 72.3594L202.995 73.7313L203.331 74.97L203.733 76.0725L204.208 77.0356L204.766 77.856L205.415 78.5298L206.163 79.0528L207.023 79.42L208.004 79.6257L209.12 79.6632L210.386 79.5246L211.816 79.2005L213.431 78.6799L215.25 77.9499L217.297 76.9953L219.601 75.7981L222.194 74.3371L225.114 72.5873L228.403 70.5192L232.115 68.0978L236.309 65.2814L241.06 62.0205L246.453 58.2559L252.593 53.9165L256.839 51.671L252.143 58.2808L248.068 64.0761L244.534 69.173L241.477 73.6675L238.841 77.6401L236.581 81.1578L234.657 84.2776L233.039 87.0474L231.697 89.5083L230.61 91.6953L229.757 93.6386L229.121 95.3643L228.689 96.8949L228.448 98.2503L228.389 99.4477L228.501 100.503L228.779 101.428L229.216 102.237L229.807 102.94L230.546 103.548L231.43 104.068L232.455 104.51L233.618 104.882L234.916 105.191L236.346 105.444L237.905 105.649L239.589 105.811L241.395 105.938L243.319 106.036L245.357 106.112L247.504 106.171L249.753 106.222L252.099 106.27L254.533 106.321L257.048 106.384L259.634 106.464L262.281 106.568L264.977 106.703L267.709 106.876L270.465 107.092L273.23 107.358L275.989 107.679L278.725 108.06L281.423 108.508L284.065 109.025L286.636 109.615L289.118 110.281L291.496 111.025L293.754 111.848L295.878 112.75L297.854 113.73L299.672 114.788L301.321 115.919L302.794 117.121L304.086 118.39L305.192 119.72L306.112 121.107L306.848 122.544L307.404 124.025L307.785 125.544L307.999 127.094L308.058 128.668L307.973 130.261L307.758 131.866L307.429 133.477L307.001 135.089L306.492 136.699L305.921 138.3L305.307 139.891L304.667 141.469L304.023 143.032L303.394 144.579L302.799 146.11L302.258 147.624L301.791 149.124L301.418 150.612L301.159 152.089L301.035 153.561L301.027 154.029Z" fill="url(#paint0_linear_541_2032)"/>
<defs>
<linearGradient id="paint0_linear_541_2032" x1="-186.92" y1="-66.2708" x2="-83.9807" y2="-356.616" gradientUnits="userSpaceOnUse">
<stop stop-color="#EB7ACC"/>
<stop offset="1" stop-color="#D6A6A3"/>
</linearGradient>
</defs>
</svg>
