<svg width="25" height="12" viewBox="0 0 25 12" fill="none" xmlns="http://www.w3.org/2000/svg">
<path d="M22.1667 0.397574L12.5 8.58666L2.83332 0.397574C2.518 0.139582 2.09569 -0.0031734 1.65733 5.35402e-05C1.21897 0.00328048 0.799652 0.152232 0.489676 0.414827C0.1797 0.677421 0.00387239 1.03265 6.32006e-05 1.404C-0.00374599 1.77535 0.164768 2.13311 0.46931 2.40023L11.313 11.5864C11.4685 11.7187 11.6535 11.8234 11.8574 11.8944C12.0612 11.9654 12.2796 12.0013 12.5 12C12.7203 12.0009 12.9386 11.9648 13.1424 11.8939C13.3461 11.8229 13.5312 11.7184 13.687 11.5864L24.5307 2.40023C24.8352 2.13311 25.0037 1.77535 24.9999 1.404C24.9961 1.03265 24.8203 0.677421 24.5103 0.414827C24.2003 0.152232 23.781 0.00328048 23.3427 5.35402e-05C22.9043 -0.0031734 22.482 0.139582 22.1667 0.397574Z" fill="black"/>
</svg>
