<svg width="276" height="288" viewBox="0 0 276 288" fill="none" xmlns="http://www.w3.org/2000/svg">
<path fill-rule="evenodd" clip-rule="evenodd" d="M265.899 143.541L266.052 144.882L266.477 146.233L267.127 147.599L267.956 148.986L268.918 150.397L269.965 151.835L271.052 153.297L272.131 154.783L273.157 156.288L274.083 157.807L274.865 159.331L275.461 160.851L275.83 162.358L275.938 163.839L275.754 165.282L275.255 166.675L274.421 168.005L273.243 169.261L271.717 170.43L269.85 171.505L267.652 172.475L265.144 173.337L262.352 174.085L259.307 174.72L256.044 175.24L252.603 175.65L249.023 175.956L245.346 176.163L241.613 176.281L237.862 176.319L234.131 176.288L230.455 176.201L226.863 176.068L223.384 175.902L220.042 175.715L216.856 175.519L213.843 175.324L211.019 175.142L208.394 174.984L205.977 174.86L203.776 174.781L201.797 174.755L200.045 174.794L198.526 174.907L197.245 175.106L196.207 175.402L195.419 175.807L194.892 176.335L194.636 177.003L194.665 177.83L194.998 178.836L195.659 180.047L196.677 181.495L198.088 183.216L199.939 185.256L202.288 187.671L205.208 190.529L208.79 193.917L213.151 197.943L218.438 202.745L224.838 208.497L232.596 215.429L238.385 221.181L228.17 215.218L219.736 210.314L212.735 206.278L206.902 202.962L202.028 200.251L197.951 198.055L194.542 196.304L191.7 194.941L189.343 193.923L187.404 193.213L185.83 192.785L184.578 192.616L183.61 192.689L182.898 192.993L182.417 193.516L182.146 194.252L182.067 195.195L182.164 196.342L182.425 197.689L182.835 199.236L183.385 200.98L184.063 202.92L184.856 205.053L185.755 207.377L186.746 209.887L187.817 212.577L188.954 215.438L190.14 218.46L191.361 221.629L192.597 224.928L193.829 228.337L195.038 231.833L196.203 235.389L197.3 238.974L198.31 242.557L199.21 246.101L199.98 249.571L200.601 252.929L201.057 256.139L201.333 259.165L201.419 261.976L201.308 264.542L200.996 266.839L200.485 268.849L199.78 270.56L198.889 271.965L197.825 273.068L196.603 273.876L195.243 274.405L193.763 274.676L192.185 274.716L190.532 274.556L188.826 274.232L187.087 273.783L185.337 273.249L183.595 272.672L181.879 272.095L180.204 271.563L178.584 271.12L177.033 270.81L175.56 270.679L174.175 270.772L172.884 271.139L171.684 271.791L170.551 272.691L169.467 273.796L168.412 275.063L167.369 276.448L166.323 277.909L165.261 279.4L164.171 280.875L163.042 282.291L161.868 283.6L160.643 284.759L159.362 285.726L158.024 286.461L156.63 286.927L155.183 287.095L153.689 286.939L152.153 286.44L150.585 285.588L148.995 284.379L147.394 282.817L145.793 280.914L144.204 278.689L142.639 276.169L141.107 273.383L139.619 270.368L138.184 267.162L136.808 263.806L135.497 260.341L134.255 256.809L133.084 253.248L131.984 249.698L130.954 246.194L129.994 242.766L129.098 239.445L128.263 236.255L127.483 233.218L126.754 230.352L126.068 227.675L125.418 225.198L124.798 222.934L124.2 220.892L123.617 219.08L123.04 217.508L122.461 216.182L121.872 215.111L121.262 214.306L120.622 213.776L119.941 213.537L119.207 213.605L118.406 214.002L117.523 214.752L116.539 215.889L115.433 217.452L114.179 219.493L112.747 222.073L111.099 225.271L109.189 229.184L106.959 233.936L104.336 239.681L101.229 246.619L97.5171 255.003L93.0473 265.162L91.8669 264.665L94.2179 253.838L96.1397 244.888L97.7003 237.461L98.9531 231.281L99.9397 226.135L100.692 221.853L101.237 218.304L101.594 215.38L101.777 212.996L101.8 211.085L101.671 209.59L101.396 208.467L100.98 207.679L100.425 207.195L99.7325 206.99L98.9026 207.045L97.9346 207.34L96.827 207.862L95.5781 208.596L94.1856 209.531L92.6476 210.655L90.9623 211.957L89.1286 213.426L87.1461 215.049L85.0159 216.814L82.7402 218.704L80.3233 220.704L77.7714 222.794L75.0933 224.956L72.3004 227.164L69.4068 229.394L66.4296 231.62L63.3889 233.811L60.3073 235.938L57.21 237.969L54.1244 239.875L51.0794 241.623L48.1044 243.186L45.2291 244.538L42.4822 245.655L39.8907 246.518L37.4789 247.114L35.2672 247.434L33.2721 247.475L31.5048 247.241L29.9715 246.739L28.6725 245.985L27.6026 244.997L26.7511 243.798L26.1022 242.416L25.6356 240.88L25.3267 239.22L25.1476 237.47L25.0675 235.662L25.0533 233.827L25.0704 231.997L25.0825 230.201L25.0526 228.468L24.9426 226.824L24.7135 225.293L24.325 223.901L23.7352 222.669L22.9041 221.616L21.8366 220.727L20.5663 219.968L19.1278 219.308L17.5561 218.715L15.8877 218.161L14.1598 217.619L12.4112 217.062L10.6816 216.465L9.01159 215.806L7.44165 215.064L6.01185 214.22L4.76088 213.26L3.72509 212.17L2.93753 210.941L2.42699 209.568L2.21708 208.049L2.32539 206.387L2.76295 204.587L3.53376 202.659L4.63472 200.617L6.05569 198.475L7.77995 196.251L9.7848 193.964L12.0424 191.635L14.5207 189.283L17.1847 186.928L19.9972 184.59L22.9204 182.286L25.9165 180.031L28.9485 177.84L31.9813 175.723L34.9821 173.69L37.9207 171.748L40.7697 169.903L43.5049 168.156L46.1047 166.51L48.5506 164.965L50.8262 163.518L52.9174 162.166L54.8118 160.908L56.4982 159.737L57.9661 158.65L59.2056 157.641L60.2062 156.705L60.9567 155.835L61.4446 155.026L61.6551 154.271L61.5707 153.566L61.1702 152.902L60.4278 152.274L59.3116 151.675L57.7826 151.096L55.7926 150.531L53.2817 149.97L50.1758 149.402L46.3823 148.815L41.7856 148.194L36.2399 147.522L29.5603 146.775L21.5113 145.925L11.7892 144.933L0 143.751L8.2802 142.501L18.6128 141.455L27.158 140.564L34.2454 139.788L40.1301 139.095L45.0116 138.46L49.0471 137.864L52.3609 137.291L55.0525 136.729L57.2014 136.166L58.8715 135.593L60.1145 135.001L60.9722 134.383L61.4786 133.731L61.6612 133.04L61.5425 132.301L61.1413 131.511L60.473 130.661L59.5508 129.746L58.3862 128.761L56.99 127.699L55.372 126.556L53.5427 125.326L51.513 124.004L49.2946 122.588L46.9013 121.074L44.3486 119.46L41.6544 117.746L38.8391 115.932L35.9262 114.02L32.9421 112.016L29.916 109.925L26.8801 107.756L23.8686 105.52L20.9182 103.23L18.0662 100.9L15.3508 98.5493L12.8095 96.1945L10.4779 93.8558L8.38934 91.5532L6.57297 89.3071L5.05328 87.1369L3.84896 85.0608L2.97231 83.095L2.4287 81.2534L2.21638 79.5465L2.32653 77.9816L2.7436 76.5621L3.44582 75.2877L4.40594 74.1542L5.59218 73.1536L6.96912 72.2744L8.49872 71.502L10.1413 70.8187L11.8563 70.2045L13.6031 69.6372L15.3419 69.0927L17.0334 68.5454L18.6399 67.9682L20.1247 67.3326L21.4523 66.6088L22.5882 65.765L23.498 64.7678L24.161 63.5912L24.609 62.2475L24.8845 60.7588L25.0281 59.1483L25.0793 57.4406L25.0765 55.6617L25.0571 53.8392L25.0575 52.0026L25.1129 50.1823L25.257 48.4101L25.5214 46.7184L25.9349 45.1394L26.5233 43.7049L27.3083 42.4448L28.3072 41.387L29.5324 40.5559L30.9909 39.9721L32.684 39.6514L34.6076 39.6042L36.7518 39.8354L39.1019 40.3441L41.6387 41.1235L44.3388 42.1614L47.1763 43.4403L50.1227 44.9387L53.1487 46.6313L56.2245 48.4899L59.3211 50.4846L62.4106 52.5846L65.4669 54.7587L68.4667 56.9764L71.3889 59.2082L74.2155 61.4264L76.9316 63.6051L79.5247 65.7206L81.9854 67.7515L84.3066 69.6786L86.4836 71.4846L88.5132 73.1542L90.3943 74.6736L92.1268 76.0303L93.7116 77.2125L95.1502 78.2089L96.4446 79.0084L97.597 79.599L98.6093 79.9679L99.483 80.1008L100.219 79.9808L100.818 79.5885L101.279 78.9001L101.599 77.8873L101.775 76.5155L101.802 74.7424L101.67 72.5161L101.37 69.7727L100.888 66.4326L100.203 62.3972L99.2946 57.5426L98.1306 51.7128L96.6732 44.7096L94.873 36.2794L92.6672 26.0946L91.433 18.244L96.1842 29.0532L100.119 37.9627L103.404 45.3303L106.17 51.4316L108.517 56.4811L110.522 60.6466L112.248 64.0606L113.744 66.8283L115.051 69.0335L116.201 70.7431L117.222 72.0111L118.135 72.8807L118.96 73.3865L119.714 73.5566L120.41 73.4133L121.062 72.975L121.68 72.2561L122.275 71.2688L122.856 70.0233L123.433 68.5283L124.013 66.792L124.606 64.8224L125.218 62.6279L125.857 60.2178L126.531 57.6029L127.246 54.7958L128.009 51.8115L128.825 48.6679L129.701 45.3858L130.641 41.9892L131.648 38.5058L132.726 34.9666L133.874 31.4057L135.094 27.8601L136.384 24.3692L137.739 20.9739L139.156 17.7155L140.628 14.6353L142.146 11.7726L143.702 9.16401L145.285 6.84223L146.883 4.83463L148.486 3.16246L150.081 1.84002L151.657 0.87408L153.203 0.263652L154.712 0L156.175 0.0669478L157.586 0.441445L158.942 1.09433L160.241 1.99127L161.484 3.09374L162.674 4.36008L163.816 5.74649L164.917 7.20791L165.987 8.69882L167.037 10.1738L168.079 11.588L169.129 12.8974L170.202 14.0584L171.317 15.0284L172.493 15.7645L173.753 16.2242L175.109 16.3996L176.555 16.335L178.082 16.0771L179.681 15.6714L181.34 15.1627L183.045 14.5956L184.78 14.0139L186.53 13.4613L188.274 12.9803L189.994 12.6122L191.666 12.3963L193.27 12.3689L194.783 12.5631L196.184 13.0072L197.452 13.7245L198.568 14.7321L199.515 16.0408L200.281 17.6545L200.855 19.57L201.231 21.7774L201.406 24.2601L201.382 26.9958L201.165 29.957L200.765 33.1123L200.195 36.4273L199.471 39.8655L198.61 43.3901L197.633 46.9641L196.561 50.5521L195.415 54.1206L194.218 57.6385L192.991 61.0781L191.753 64.4147L190.526 67.6271L189.327 70.6975L188.173 73.6113L187.079 76.3566L186.061 78.9245L185.132 81.3082L184.303 83.5027L183.588 85.5045L182.996 87.3111L182.54 88.9209L182.23 90.3321L182.079 91.543L182.101 92.5513L182.309 93.3536L182.721 93.9452L183.357 94.3196L184.24 94.4678L185.398 94.3779L186.865 94.0342L188.683 93.4168L190.9 92.4999L193.58 91.251L196.798 89.629L200.65 87.5819L205.254 85.0439L210.762 81.9317L217.364 78.1391L225.308 73.53L234.912 67.9287L235.401 69.1512L227.149 76.5165L220.345 82.6171L214.726 87.7003L210.089 91.9568L206.272 95.5351L203.152 98.5519L200.63 101.1L198.627 103.253L197.081 105.07L195.943 106.6L195.172 107.883L194.737 108.952L194.613 109.833L194.78 110.549L195.223 111.12L195.928 111.563L196.887 111.892L198.092 112.12L199.536 112.26L201.214 112.321L203.121 112.315L205.252 112.252L207.601 112.141L210.161 111.993L212.923 111.817L215.877 111.626L219.009 111.428L222.304 111.237L225.742 111.063L229.3 110.918L232.953 110.815L236.67 110.765L240.418 110.78L244.161 110.872L247.86 111.049L251.476 111.323L254.966 111.699L258.29 112.184L261.408 112.782L264.285 113.494L266.886 114.319L269.185 115.256L271.159 116.298L272.794 117.438L274.083 118.667L275.026 119.975L275.63 121.349L275.913 122.778L275.894 124.248L275.605 125.748L275.077 127.265L274.35 128.789L273.465 130.311L272.466 131.821L271.399 133.313L270.309 134.784L269.244 136.229L268.25 137.649L267.374 139.043L266.662 140.416L266.16 141.77L265.915 143.114L265.899 143.541Z" fill="url(#paint0_linear_511_3)"/>
<defs>
<linearGradient id="paint0_linear_511_3" x1="105.464" y1="216.532" x2="355.496" y2="94.7514" gradientUnits="userSpaceOnUse">
<stop stop-color="#0A9159"/>
<stop offset="1" stop-color="#3B12F5"/>
</linearGradient>
</defs>
</svg>
