<svg width="244" height="224" viewBox="0 0 244 224" fill="none" xmlns="http://www.w3.org/2000/svg">
<path fill-rule="evenodd" clip-rule="evenodd" d="M244 111.99V111.99L242.196 113.192L240.441 114.359L238.735 115.493L237.075 116.595L235.459 117.668L233.887 118.711L232.356 119.727L230.865 120.718L229.413 121.683L227.998 122.625L226.619 123.545L225.274 124.443L223.963 125.32L222.685 126.179L221.437 127.018L220.22 127.84L219.031 128.646L217.871 129.436L216.738 130.21L215.631 130.97L214.55 131.716L213.493 132.449L212.459 133.17L211.449 133.88L210.461 134.578L209.494 135.265L208.547 135.942L207.621 136.61L206.714 137.269L205.825 137.92L204.954 138.562L204.101 139.197L203.265 139.825L202.445 140.446L201.641 141.061L200.851 141.67L200.077 142.273L199.316 142.871L198.569 143.464L197.836 144.053L197.114 144.637L196.406 145.217L195.709 145.794L195.023 146.368L194.348 146.938L193.684 147.506L193.03 148.071L192.386 148.634L191.751 149.194L191.125 149.753L190.508 150.31L189.899 150.866L189.298 151.421L188.704 151.974L188.118 152.527L187.539 153.08L186.966 153.631L186.4 154.183L185.84 154.734L185.285 155.286L184.736 155.837L184.192 156.389L183.653 156.942L183.118 157.495L182.588 158.049L182.061 158.604L181.538 159.159L181.019 159.716L180.503 160.274L179.989 160.834L179.479 161.395L178.971 161.957L178.464 162.521L177.96 163.087L177.458 163.654L176.957 164.223L176.457 164.795L175.957 165.368L175.459 165.943L174.961 166.521L174.463 167.1L173.966 167.682L173.468 168.266L172.969 168.853L172.47 169.442L171.97 170.033L171.469 170.626L170.966 171.222L170.462 171.821L169.956 172.422L169.448 173.025L168.937 173.631L168.425 174.239L167.909 174.85L167.391 175.463L166.869 176.079L166.344 176.697L165.816 177.318L165.284 177.941L164.748 178.566L164.208 179.193L163.663 179.823L163.114 180.455L162.56 181.089L162.002 181.726L161.438 182.364L160.869 183.004L160.294 183.646L159.713 184.29L159.127 184.935L158.534 185.582L157.935 186.231L157.33 186.881L156.718 187.532L156.099 188.185L155.473 188.838L154.84 189.492L154.2 190.148L153.552 190.803L152.896 191.46L152.233 192.116L151.561 192.773L150.881 193.43L150.193 194.087L149.497 194.743L148.791 195.399L148.077 196.054L147.355 196.708L146.623 197.361L145.881 198.013L145.131 198.663L144.371 199.312L143.602 199.958L142.823 200.603L142.034 201.245L141.235 201.884L140.426 202.52L139.608 203.153L138.779 203.782L137.94 204.408L137.091 205.03L136.231 205.648L135.361 206.261L134.481 206.869L133.59 207.471L132.689 208.069L131.777 208.661L130.855 209.246L129.922 209.826L128.979 210.398L128.025 210.964L127.06 211.522L126.085 212.073L125.1 212.615L124.104 213.149L123.098 213.675L122.081 214.192L121.055 214.699L120.018 215.196L118.971 215.684L117.914 216.161L116.847 216.627L115.771 217.083L114.685 217.527L113.589 217.959L112.484 218.379L111.37 218.786L110.248 219.181L109.116 219.563L107.975 219.931L106.827 220.285L105.67 220.625L104.505 220.951L103.332 221.262L102.152 221.557L100.965 221.837L99.7705 222.102L98.5694 222.35L97.362 222.582L96.1483 222.797L94.9289 222.995L93.7039 223.175L92.4737 223.339L91.2386 223.484L89.999 223.611L88.7552 223.72L87.5075 223.81L86.2563 223.881L85.002 223.933L83.7449 223.966L82.4854 223.98L81.2239 223.973L79.9608 223.947L78.6965 223.9L77.4314 223.834L76.1658 223.746L74.9003 223.639L73.6352 223.51L72.371 223.361L71.1079 223.191L69.8466 223L68.5874 222.787L67.3307 222.554L66.077 222.299L64.8266 222.023L63.5801 221.726L62.3378 221.408L61.1002 221.068L59.8677 220.707L58.6407 220.324L57.4196 219.921L56.205 219.496L54.9971 219.05L53.7964 218.584L52.6033 218.096L51.4182 217.587L50.2416 217.058L49.0737 216.509L47.915 215.938L46.7659 215.348L45.6268 214.738L44.4979 214.107L43.3797 213.458L42.2726 212.788L41.1768 212.1L40.0927 211.392L39.0206 210.666L37.9608 209.921L36.9137 209.158L35.8794 208.377L34.8584 207.579L33.8509 206.763L32.8571 205.93L31.8774 205.08L30.9118 204.214L29.9607 203.331L29.0243 202.433L28.1027 201.52L27.1962 200.591L26.305 199.648L25.4291 198.69L24.5688 197.719L23.7242 196.733L22.8954 195.735L22.0825 194.723L21.2857 193.699L20.505 192.663L19.7405 191.615L18.9923 190.556L18.2603 189.486L17.5448 188.405L16.8456 187.314L16.1627 186.213L15.4963 185.102L14.8462 183.983L14.2125 182.854L13.5951 181.718L12.994 180.573L12.4091 179.421L11.8403 178.261L11.2876 177.095L10.7509 175.922L10.23 174.743L9.7249 173.558L9.23542 172.368L8.76144 171.172L8.30282 169.972L7.85942 168.767L7.43107 167.558L7.0176 166.345L6.61884 165.129L6.23461 163.909L5.86472 162.686L5.50896 161.46L5.16712 160.232L4.83901 159.002L4.5244 157.77L4.22306 156.536L3.93476 155.3L3.65927 154.063L3.39634 152.826L3.14573 151.587L2.90719 150.348L2.68045 149.108L2.46527 147.868L2.26138 146.628L2.06851 145.388L1.88639 144.148L1.71475 142.908L1.55331 141.669L1.4018 140.43L1.25993 139.192L1.12743 137.954L1.004 136.718L0.889373 135.482L0.783252 134.247L0.685353 133.013L0.595386 131.78L0.513066 130.549L0.438101 129.318L0.370205 128.088L0.309087 126.86L0.25446 125.632L0.206034 124.406L0.163522 123.18L0.126637 121.956L0.0950929 120.732L0.0686039 119.509L0.0468859 118.287L0.0296558 117.066L0.0166318 115.845L0.00753348 114.624L0.00208198 113.404L0 112.184L0.00106628 110.964L0.00541446 109.744L0.013321 108.524L0.0250642 107.303L0.040924 106.082L0.0611818 104.86L0.0861203 103.637L0.116023 102.414L0.151176 101.189L0.191864 99.9642L0.238375 98.738L0.290996 97.5109L0.350015 96.2827L0.415721 95.0534L0.488403 93.8231L0.568349 92.5917L0.655848 91.3592L0.75119 90.1257L0.854661 88.8912L0.966549 87.6558L1.08714 86.4194L1.21672 85.1823L1.35558 83.9444L1.50399 82.7058L1.66223 81.4666L1.83059 80.2271L2.00935 78.9871L2.19876 77.747L2.39912 76.5068L2.61067 75.2666L2.8337 74.0268L3.06845 72.7873L3.31519 71.5484L3.57417 70.3104L3.84563 69.0733L4.12982 67.8374L4.42698 66.6029L4.73734 65.3701L5.06113 64.1391L5.39857 62.9103L5.74987 61.6839L6.11524 60.4601L6.49489 59.2393L6.889 58.0216L7.29776 56.8075L7.72135 55.5972L8.15994 54.3909L8.6137 53.1891L9.08277 51.992L9.5673 50.7999L10.0674 49.6132L10.5833 48.4323L11.1149 47.2574L11.6625 46.089L12.2262 44.9273L12.806 43.7727L13.4019 42.6257L14.0141 41.4865L14.6426 40.3555L15.2875 39.2331L15.9487 38.1197L16.6263 37.0157L17.3203 35.9214L18.0306 34.8372L18.7574 33.7635L19.5004 32.7007L20.2597 31.6491L21.0353 30.6092L21.827 29.5813L22.6347 28.5658L23.4585 27.5631L24.2981 26.5736L25.1534 25.5975L26.0243 24.6354L26.9107 23.6875L27.8123 22.7542L28.7291 21.8358L29.6608 20.9328L30.6073 20.0455L31.5682 19.1741L32.5435 18.3191L33.5329 17.4807L34.536 16.6592L35.5528 15.8551L36.5828 15.0685L37.6259 14.2997L38.6816 13.5491L39.7498 12.8169L40.8302 12.1033L41.9223 11.4087L43.0259 10.7332L44.1406 10.0771L45.2661 9.44058L46.402 8.82386L47.548 8.22713L48.7036 7.65057L49.8686 7.09434L51.0425 6.55861L52.2249 6.0435L53.4155 5.54915L54.6138 5.07568L55.8195 4.62318L57.032 4.19174L58.2511 3.78144L59.4762 3.39233L60.707 3.02447L61.943 2.67788L63.1839 2.35259L64.4291 2.0486L65.6783 1.7659L66.931 1.50447L68.1868 1.26427L69.4453 1.04526L70.706 0.847364L71.9685 0.670516L73.2324 0.514624L74.4973 0.379585L75.7627 0.265286L77.0283 0.171599L78.2936 0.0983839L79.5582 0.0454899L80.8217 0.0127535L82.0837 0L83.3439 0.00704351L84.6018 0.0336873L85.8571 0.079724L87.1093 0.144936L88.3581 0.229096L89.6032 0.331968L90.8443 0.453304L92.0808 0.592851L93.3126 0.750344L94.5393 0.925513L95.7605 1.11808L96.976 1.32776L98.1855 1.55425L99.3886 1.79726L100.585 2.05649L101.775 2.33162L102.957 2.62233L104.132 2.92831L105.3 3.24922L106.459 3.58475L107.61 3.93455L108.753 4.2983L109.888 4.67564L111.014 5.06625L112.131 5.46977L113.238 5.88587L114.337 6.31419L115.426 6.75439L116.505 7.20612L117.575 7.66903L118.635 8.14278L119.685 8.62702L120.725 9.1214L121.755 9.62558L122.775 10.1392L123.785 10.662L124.784 11.1935L125.772 11.7334L126.751 12.2815L127.719 12.8373L128.676 13.4006L129.623 13.971L130.559 14.5481L131.485 15.1318L132.4 15.7216L133.304 16.3173L134.198 16.9185L135.082 17.525L135.955 18.1364L136.818 18.7524L137.671 19.3729L138.513 19.9975L139.345 20.6258L140.167 21.2577L140.979 21.893L141.78 22.5312L142.572 23.1722L143.354 23.8158L144.127 24.4616L144.89 25.1095L145.643 25.7592L146.387 26.4105L147.122 27.0632L147.848 27.7171L148.565 28.372L149.273 29.0276L149.972 29.6838L150.663 30.3404L151.346 30.9972L152.02 31.654L152.686 32.3108L153.344 32.9672L153.994 33.6232L154.637 34.2786L155.273 34.9332L155.901 35.587L156.522 36.2398L157.136 36.8915L157.743 37.5419L158.344 38.191L158.939 38.8385L159.527 39.4846L160.109 40.1289L160.686 40.7715L161.257 41.4123L161.823 42.0511L162.383 42.6879L162.938 43.3227L163.489 43.9554L164.035 44.5859L164.576 45.2141L165.114 45.8401L165.647 46.4637L166.176 47.085L166.702 47.7039L167.225 48.3204L167.744 48.9344L168.261 49.546L168.774 50.1552L169.285 50.7618L169.794 51.366L170.301 51.9677L170.806 52.567L171.309 53.1637L171.81 53.7581L172.311 54.35L172.81 54.9396L173.309 55.5268L173.807 56.1116L174.305 56.6942L174.803 57.2746L175.3 57.8527L175.799 58.4287L176.297 59.0026L176.797 59.5745L177.298 60.1445L177.8 60.7126L178.304 61.2788L178.809 61.8433L179.317 62.4062L179.826 62.9675L180.339 63.5274L180.854 64.0859L181.372 64.6431L181.894 65.1992L182.419 65.7543L182.949 66.3084L183.482 66.8617L184.02 67.4144L184.562 67.9666L185.11 68.5183L185.663 69.0698L186.221 69.6212L186.785 70.1726L187.356 70.7243L187.933 71.2764L188.517 71.829L189.108 72.3824L189.707 72.9367L190.313 73.4922L190.928 74.049L191.551 74.6073L192.183 75.1674L192.824 75.7294L193.475 76.2937L194.136 76.8605L194.807 77.43L195.489 78.0025L196.182 78.5782L196.887 79.1574L197.604 79.7405L198.334 80.3277L199.077 80.9193L199.833 81.5157L200.603 82.1173L201.388 82.7242L202.187 83.337L203.002 83.956L203.833 84.5816L204.681 85.2142L205.546 85.8542L206.429 86.5021L207.33 87.1584L208.25 87.8234L209.19 88.4978L210.15 89.182L211.132 89.8766L212.135 90.5822L213.161 91.2993L214.211 92.0286L215.284 92.7707L216.383 93.5262L217.507 94.2959L218.659 95.0805L219.838 95.8808L221.046 96.6976L222.284 97.5317L223.553 98.384L224.853 99.2554L226.187 100.147L227.555 101.059L228.958 101.994L230.398 102.952L231.877 103.934L233.395 104.942L234.954 105.977L236.555 107.04L238.201 108.132L239.892 109.256L241.631 110.412L243.42 111.603L244 111.99Z" fill="url(#paint0_linear_541_2037)"/>
<defs>
<linearGradient id="paint0_linear_541_2037" x1="82.4833" y1="-159.8" x2="-130.717" y2="-269.847" gradientUnits="userSpaceOnUse">
<stop stop-color="#661FA1"/>
<stop offset="1" stop-color="#9147A3"/>
</linearGradient>
</defs>
</svg>
