<svg width="283" height="283" viewBox="0 0 283 283" fill="none" xmlns="http://www.w3.org/2000/svg">
<path fill-rule="evenodd" clip-rule="evenodd" d="M255.46 141.461V141.461L255.5 142.601L255.619 143.745L255.818 144.893L256.096 146.049L256.452 147.215L256.885 148.395L257.394 149.59L257.978 150.802L258.634 152.035L259.36 153.291L260.154 154.57L261.013 155.877L261.934 157.211L262.912 158.576L263.942 159.972L265.02 161.401L266.141 162.863L267.296 164.359L268.48 165.889L269.683 167.453L270.899 169.05L272.116 170.678L273.325 172.336L274.515 174.022L275.674 175.732L276.791 177.462L277.853 179.209L278.847 180.967L279.761 182.732L280.582 184.497L281.297 186.255L281.895 188L282.365 189.725L282.697 191.422L282.883 193.084L282.914 194.705L282.786 196.276L282.496 197.793L282.04 199.247L281.421 200.636L280.64 201.953L279.702 203.196L278.612 204.362L277.379 205.449L276.013 206.457L274.522 207.387L272.92 208.239L271.22 209.015L269.432 209.72L267.572 210.357L265.653 210.929L263.686 211.443L261.686 211.904L259.664 212.316L257.632 212.687L255.6 213.021L253.579 213.326L251.577 213.606L249.602 213.868L247.662 214.118L245.762 214.36L243.909 214.601L242.108 214.845L240.361 215.097L238.672 215.362L237.043 215.644L235.478 215.947L233.976 216.275L232.54 216.632L231.169 217.022L229.863 217.446L228.623 217.909L227.448 218.413L226.337 218.962L225.29 219.557L224.304 220.201L223.379 220.896L222.513 221.644L221.705 222.448L220.952 223.309L220.253 224.23L219.605 225.21L219.006 226.253L218.454 227.359L217.947 228.528L217.48 229.763L217.053 231.063L216.661 232.429L216.302 233.861L215.971 235.357L215.666 236.918L215.382 238.541L215.116 240.225L214.863 241.968L214.619 243.765L214.378 245.614L214.136 247.51L213.887 249.447L213.626 251.42L213.348 253.42L213.045 255.44L212.714 257.471L212.346 259.504L211.937 261.527L211.481 263.529L210.971 265.499L210.403 267.423L209.772 269.288L209.073 271.081L208.302 272.79L207.456 274.4L206.533 275.899L205.531 277.277L204.45 278.521L203.291 279.622L202.054 280.573L200.742 281.366L199.359 281.998L197.909 282.467L196.398 282.77L194.831 282.911L193.214 282.892L191.554 282.719L189.86 282.398L188.137 281.939L186.393 281.351L184.636 280.644L182.871 279.831L181.107 278.924L179.347 277.936L177.599 276.879L175.867 275.766L174.156 274.61L172.468 273.422L170.808 272.214L169.177 270.997L167.578 269.781L166.012 268.576L164.479 267.391L162.98 266.233L161.515 265.109L160.084 264.028L158.685 262.993L157.318 262.011L155.981 261.086L154.672 260.222L153.39 259.422L152.133 258.69L150.899 258.028L149.684 257.439L148.488 256.924L147.308 256.485L146.14 256.123L144.983 255.839L143.835 255.633L142.691 255.508L141.551 255.461L140.41 255.495L139.267 255.608L138.12 255.801L136.964 256.072L135.799 256.422L134.62 256.849L133.427 257.352L132.216 257.93L130.985 258.58L129.731 259.301L128.453 260.09L127.149 260.944L125.817 261.86L124.454 262.833L123.061 263.86L121.635 264.934L120.175 266.051L118.682 267.204L117.154 268.386L115.593 269.588L113.999 270.803L112.373 272.02L110.718 273.23L109.034 274.422L107.326 275.585L105.597 276.705L103.851 277.772L102.094 278.772L100.329 279.693L98.5647 280.521L96.8056 281.246L95.0592 281.854L93.3326 282.334L91.6328 282.677L89.9674 282.875L88.3433 282.919L86.7677 282.804L85.2468 282.526L83.7869 282.084L82.393 281.478L81.0698 280.71L79.8208 279.784L78.6487 278.706L77.5552 277.484L76.5408 276.127L75.6053 274.646L74.7473 273.053L73.9646 271.36L73.2543 269.579L72.6125 267.724L72.0348 265.809L71.5164 263.846L71.0519 261.848L70.6358 259.827L70.2621 257.795L69.9249 255.763L69.6183 253.74L69.3363 251.736L69.073 249.759L68.8227 247.816L68.5799 245.913L68.3392 244.056L68.0957 242.25L67.8443 240.499L67.5806 238.805L67.3001 237.172L66.9987 235.601L66.6725 234.095L66.3179 232.653L65.9314 231.277L65.5098 229.966L65.05 228.721L64.5491 227.541L64.0044 226.425L63.4133 225.372L62.7734 224.382L62.0824 223.452L61.3382 222.581L60.5387 221.769L59.6822 221.011L58.7668 220.308L57.791 219.656L56.7534 219.053L55.6527 218.498L54.4879 217.987L53.2584 217.517L51.9634 217.087L50.6027 216.692L49.1766 216.33L47.6853 215.998L46.1298 215.691L44.5114 215.406L42.832 215.138L41.094 214.884L39.3006 214.639L37.4555 214.398L35.5632 214.157L33.6292 213.909L31.6594 213.649L29.6611 213.372L27.6422 213.072L25.6114 212.742L23.5786 212.378L21.5543 211.973L19.5498 211.52L17.5773 211.015L15.6493 210.452L13.7789 209.826L11.9793 209.132L10.2637 208.367L8.64524 207.528L7.13644 206.611L5.74915 205.615L4.49421 204.541L3.38122 203.387L2.4183 202.156L1.61194 200.85L0.966744 199.473L0.48542 198.029L0.16865 196.522L0.01511 194.959L0.0215147 193.345L0.182715 191.689L0.491843 189.997L0.940497 188.276L1.51895 186.534L2.2164 184.777L3.02118 183.013L3.92103 181.248L4.90334 179.488L5.95533 177.739L7.06431 176.006L8.21779 174.293L9.40369 172.603L10.6104 170.94L11.827 169.307L13.0432 167.705L14.2494 166.136L15.4368 164.601L16.5972 163.099L17.7234 161.632L18.8087 160.198L19.8473 158.796L20.8338 157.427L21.7636 156.087L22.6327 154.777L23.4375 153.493L24.1749 152.234L24.8423 150.997L25.4374 149.782L25.9584 148.584L26.4037 147.402L26.7721 146.234L27.0624 145.076L27.2739 143.927L27.4062 142.783L27.4588 141.643L27.4316 140.502L27.3247 139.36L27.1383 138.213L26.873 137.058L26.5295 135.893L26.1086 134.716L25.6115 133.524L25.0398 132.314L24.3952 131.085L23.6798 129.833L22.8962 128.557L22.0472 127.255L21.1363 125.925L20.1674 124.565L19.1449 123.174L18.0738 121.751L16.96 120.294L15.8097 118.803L14.6301 117.279L13.429 115.72L12.215 114.129L10.9974 112.505L9.78635 110.852L8.59258 109.17L7.42748 107.464L6.30299 105.737L5.23148 103.992L4.22559 102.235L3.29809 100.471L2.46167 98.7063L1.72874 96.9466L1.11116 95.1989L0.620049 93.4704L0.265498 91.7683L0.056356 90.0998L0 88.4722L0.102145 86.8925L0.366682 85.3671L0.795569 83.902L1.38876 82.5027L2.1442 81.1738L3.05787 79.9187L4.12386 78.7404L5.33457 77.6406L6.68082 76.6199L8.15216 75.6782L9.73702 74.8141L11.423 74.0255L13.1973 73.3095L15.0466 72.6624L16.9577 72.0798L18.9174 71.5569L20.9131 71.0883L22.9323 70.6685L24.9636 70.2917L26.9961 69.9518L29.0199 69.643L31.0257 69.3592L33.0053 69.0946L34.9514 68.8435L36.8576 68.6003L38.7183 68.3597L40.5286 68.1166L42.2846 67.866L43.9829 67.6034L45.621 67.3244L47.1967 67.0248L48.7086 66.7007L50.1556 66.3485L51.5371 65.9647L52.853 65.546L54.1034 65.0893L55.2887 64.5918L56.4096 64.0507L57.4672 63.4634L58.4626 62.8275L59.3971 62.1406L60.2722 61.4007L61.0896 60.6057L61.8512 59.7538L62.5589 58.8431L63.2149 57.8722L63.8213 56.8395L64.3805 55.7439L64.895 54.5843L65.3676 53.3599L65.8011 52.0702L66.1984 50.7148L66.5628 49.2938L66.8976 47.8076L67.2065 46.2572L67.4932 44.6438L67.7619 42.9691L68.0167 41.2357L68.2622 39.4466L68.5032 37.6055L68.7448 35.7168L68.9921 33.7858L69.2506 31.8187L69.5261 29.8224L69.8242 27.8047L70.151 25.7746L70.5124 23.7415L70.9144 21.7161L71.3629 19.7097L71.8635 17.7342L72.4217 15.8022L73.0426 13.9267L73.7307 12.1209L74.4899 10.3982L75.3237 8.77152L76.2343 7.25355L77.2234 5.85617L78.2918 4.59032L79.439 3.4657L80.6638 2.49058L81.9637 1.67155L83.3355 1.0134L84.7749 0.518972L86.277 0.18912L87.8359 0.0226764L89.4452 0.0165093L91.0983 0.165613L92.7879 0.46325L94.5068 0.901134L96.2477 1.46964L98.0034 2.15803L99.7671 2.9547L101.532 3.84744L103.293 4.82365L105.043 5.87056L106.778 6.97546L108.493 8.12584L110.184 9.3096L111.849 10.5151L113.485 11.7313L115.089 12.9479L116.661 14.1552L118.199 15.3444L119.703 16.5072L121.173 17.6364L122.61 18.7252L124.014 19.7677L125.386 20.7585L126.728 21.693L128.041 22.5671L129.327 23.3771L130.588 24.12L131.826 24.793L133.043 25.394L134.242 25.921L135.425 26.3723L136.594 26.7468L137.753 27.0434L138.903 27.2612L140.047 27.3998L141.187 27.4588L142.328 27.4379L143.47 27.3374L144.617 27.1573L145.771 26.8983L146.934 26.5609L148.111 26.1462L149.301 25.6551L150.51 25.0893L151.738 24.4504L152.987 23.7406L154.261 22.9623L155.561 22.1184L156.889 21.2123L158.246 20.2478L159.635 19.2294L161.056 18.162L162.51 17.0514L163.998 15.9037L165.52 14.7262L167.075 13.5265L168.664 12.3131L170.285 11.0955L171.936 9.88356L173.616 8.688L175.32 7.52019L177.046 6.39202L178.789 5.31583L180.545 4.30424L182.309 3.37003L184.074 2.5259L185.834 1.78429L187.583 1.1571L189.314 0.655536L191.018 0.289768L192.69 0.0687552L194.321 0L195.904 0.0893553L197.434 0.340863L198.904 0.756638L200.309 1.33679L201.644 2.07944L202.905 2.98069L204.089 4.03482L205.196 5.23431L206.223 6.57014L207.171 8.03193L208.041 9.60819L208.835 11.2866L209.557 13.0544L210.209 14.8982L210.797 16.8048L211.324 18.7612L211.797 20.7544L212.221 22.7722L212.601 24.8029L212.943 26.8357L213.254 28.8605L213.54 30.868L213.806 32.85L214.058 34.7991L214.301 36.7087L214.542 38.5732L214.785 40.3876L215.035 42.1481L215.296 43.8511L215.574 45.4941L215.871 47.0748L216.193 48.5918L216.543 50.044L216.924 51.4307L217.34 52.7519L217.794 54.0074L218.288 55.1979L218.825 56.324L219.409 57.3866L220.041 58.3868L220.724 59.3261L221.459 60.2059L222.25 61.0279L223.097 61.7938L224.003 62.5058L224.969 63.1657L225.997 63.776L227.087 64.3389L228.242 64.8569L229.461 65.3327L230.746 65.7692L232.096 66.1693L233.512 66.5362L234.992 66.8732L236.538 67.184L238.146 67.4724L239.816 67.7423L241.545 67.9981L243.33 68.2442L245.167 68.4854L247.052 68.7267L248.98 68.9733L250.944 69.2308L252.939 69.5046L254.955 69.8008L256.984 70.125L259.018 70.4835L261.044 70.882L263.052 71.3266L265.031 71.8228L266.967 72.3763L268.847 72.992L270.659 73.6746L272.389 74.4281L274.024 75.2557L275.551 76.1602L276.958 77.143L278.235 78.2051L279.371 79.3461L280.358 80.5647L281.19 81.8587L281.861 83.225L282.369 84.6592L282.711 86.1565L282.891 87.7111L282.91 89.3166L282.773 90.9665L282.487 92.6534L282.059 94.3702L281.501 96.1096L280.822 97.8645L280.033 99.6278L279.148 101.393L278.178 103.154L277.136 104.905L276.035 106.641L274.888 108.358L273.706 110.052L272.502 111.719L271.287 113.357L270.07 114.964L268.861 116.538L267.67 118.079L266.505 119.586L265.373 121.059L264.281 122.498L263.234 123.905L262.239 125.279L261.3 126.623L260.421 127.939L259.606 129.227L258.857 130.49L258.179 131.729L257.572 132.948L257.039 134.148L256.582 135.332L256.201 136.503L255.898 137.662L255.674 138.812L255.529 139.957L255.464 141.098L255.46 141.461Z" fill="url(#paint0_linear_541_2018)"/>
<defs>
<linearGradient id="paint0_linear_541_2018" x1="1127.04" y1="-1026.92" x2="1317.59" y2="-817.796" gradientUnits="userSpaceOnUse">
<stop stop-color="#42ADCF"/>
<stop offset="1" stop-color="#F7E005"/>
</linearGradient>
</defs>
</svg>
