<svg width="292" height="292" viewBox="0 0 292 292" fill="none" xmlns="http://www.w3.org/2000/svg">
<path fill-rule="evenodd" clip-rule="evenodd" d="M291.999 145.998V145.998L291.963 147.458L291.853 148.915L291.672 150.369L291.419 151.818L291.095 153.259L290.703 154.691L290.244 156.112L289.72 157.52L289.133 158.915L288.486 160.294L287.782 161.657L287.023 163.002L286.213 164.329L285.355 165.636L284.452 166.923L283.508 168.189L282.526 169.434L281.51 170.657L280.464 171.858L279.39 173.038L278.293 174.195L277.176 175.332L276.042 176.447L274.895 177.541L273.737 178.615L272.573 179.669L271.405 180.705L270.235 181.723L269.068 182.723L267.905 183.708L266.749 184.677L265.602 185.633L264.467 186.576L263.346 187.508L262.24 188.429L261.153 189.342L260.085 190.248L259.039 191.147L258.015 192.043L257.016 192.935L256.042 193.826L255.095 194.717L254.177 195.611L253.289 196.508L252.431 197.41L251.604 198.32L250.81 199.238L250.05 200.168L249.324 201.11L248.634 202.068L247.98 203.042L247.363 204.035L246.785 205.05L246.245 206.089L245.746 207.153L245.287 208.246L244.87 209.371L244.496 210.53L244.166 211.726L243.882 212.963L243.644 214.244L243.453 215.571L243.312 216.95L243.222 218.385L243.184 219.879L243.201 221.437L243.275 223.065L243.408 224.768L243.602 226.553L243.86 228.425L244.186 230.392L244.582 232.462L245.053 234.643L245.603 236.945L246.237 239.379L246.959 241.956L247.777 244.688L248.696 247.592L247.832 248.772L244.914 247.845L242.169 247.02L239.58 246.29L237.135 245.649L234.823 245.093L232.633 244.616L230.554 244.213L228.579 243.882L226.7 243.619L224.909 243.42L223.199 243.282L221.565 243.204L220.002 243.183L218.503 243.216L217.064 243.302L215.68 243.439L214.349 243.626L213.065 243.86L211.825 244.141L210.625 244.467L209.463 244.838L208.336 245.251L207.24 245.707L206.173 246.203L205.133 246.739L204.116 247.315L203.121 247.929L202.146 248.58L201.187 249.267L200.244 249.99L199.313 250.747L198.394 251.538L197.483 252.362L196.581 253.218L195.683 254.104L194.79 255.02L193.898 255.964L193.007 256.936L192.115 257.933L191.22 258.955L190.321 260L189.416 261.066L188.503 262.152L187.583 263.256L186.652 264.376L185.71 265.51L184.755 266.656L183.787 267.811L182.803 268.974L181.804 270.141L180.788 271.31L179.754 272.479L178.701 273.644L177.628 274.802L176.536 275.95L175.422 277.085L174.288 278.204L173.132 279.303L171.954 280.378L170.754 281.427L169.533 282.445L168.29 283.43L167.026 284.377L165.741 285.283L164.435 286.145L163.11 286.959L161.766 287.722L160.405 288.431L159.026 289.083L157.633 289.674L156.225 290.203L154.805 290.668L153.374 291.065L151.934 291.394L150.486 291.653L149.033 291.84L147.575 291.955L146.115 291.998L144.656 291.967L143.198 291.863L141.743 291.688L140.294 291.44L138.853 291.122L137.42 290.736L135.998 290.282L134.589 289.763L133.193 289.181L131.812 288.539L130.448 287.839L129.101 287.084L127.773 286.278L126.464 285.424L125.176 284.524L123.908 283.583L122.662 282.605L121.437 281.591L120.234 280.547L119.052 279.475L117.893 278.38L116.755 277.264L115.638 276.132L114.543 274.985L113.467 273.828L112.411 272.665L111.374 271.497L110.355 270.327L109.353 269.159L108.367 267.996L107.396 266.839L106.44 265.692L105.496 264.556L104.563 263.433L103.641 262.327L102.727 261.238L101.821 260.168L100.921 259.12L100.026 258.094L99.1331 257.093L98.242 256.117L97.3507 255.169L96.4575 254.248L95.5609 253.357L94.6589 252.497L93.75 251.668L92.8321 250.871L91.9035 250.108L90.9622 249.38L90.0061 248.687L89.0333 248.03L88.0415 247.41L87.0286 246.828L85.9921 246.286L84.9296 245.783L83.8387 245.321L82.7166 244.901L81.5604 244.523L80.3672 244.19L79.1339 243.902L77.8571 243.66L76.5332 243.465L75.1584 243.32L73.7287 243.226L72.2396 243.184L70.6864 243.197L69.064 243.266L67.367 243.394L65.5893 243.583L63.7244 243.836L61.7652 244.156L59.7039 244.547L57.5318 245.012L55.2397 245.555L52.8169 246.182L50.2521 246.897L47.5322 247.707L44.6431 248.617L43.1462 248.071L44.0821 245.139L44.9153 242.38L45.6525 239.779L46.2999 237.324L46.8628 235.001L47.3461 232.802L47.7542 230.715L48.0909 228.732L48.3597 226.845L48.5638 225.047L48.7059 223.331L48.7888 221.692L48.8147 220.122L48.7857 218.618L48.7038 217.175L48.5707 215.787L48.3881 214.452L48.1574 213.164L47.8801 211.921L47.5573 210.718L47.1904 209.553L46.7803 208.423L46.3282 207.325L45.835 206.256L45.3018 205.214L44.7294 204.195L44.1187 203.199L43.4707 202.222L42.7861 201.262L42.066 200.317L41.3113 199.386L40.5227 198.465L39.7014 197.555L38.8483 196.651L37.9644 195.753L37.0509 194.859L36.1088 193.968L35.1395 193.077L34.1441 192.185L33.1242 191.29L32.0812 190.391L31.0166 189.487L29.9321 188.575L28.8295 187.655L27.7108 186.725L26.5778 185.784L25.4329 184.83L24.2781 183.863L23.116 182.881L21.949 181.883L20.7798 180.868L19.6112 179.835L18.446 178.784L17.2873 177.713L16.1382 176.622L15.0019 175.511L13.8818 174.378L12.7812 173.223L11.7036 172.047L10.6525 170.85L9.63144 169.63L8.64403 168.389L7.69378 167.126L6.78421 165.843L5.91877 164.539L5.10085 163.215L4.33372 161.873L3.62051 160.512L2.96421 159.136L2.36761 157.743L1.8333 156.337L1.36363 154.918L0.960681 153.487L0.626289 152.048L0.361972 150.601L0.168945 149.147L0.0481008 147.69L0 146.23L0.0248666 144.771L0.122585 143.312L0.2927 141.858L0.534426 140.408L0.846648 138.966L1.22794 137.533L1.67657 136.11L2.19054 134.699L2.76757 133.302L3.40515 131.92L4.10054 130.555L4.85083 129.206L5.65292 127.877L6.50359 126.566L7.39947 125.276L8.33714 124.007L9.31311 122.759L10.3238 121.532L11.3657 120.328L12.4353 119.145L13.5289 117.983L14.6432 116.844L15.7747 115.725L16.9201 114.628L18.0761 113.551L19.2395 112.493L20.4074 111.455L21.5767 110.434L22.7447 109.431L23.9086 108.444L25.066 107.472L26.2143 106.514L27.3513 105.569L28.4748 104.636L29.5828 103.713L30.6732 102.799L31.7443 101.892L32.7944 100.991L33.8219 100.096L34.8252 99.2029L35.8029 98.3118L36.7538 97.4205L37.6766 96.5276L38.57 95.6313L39.4331 94.7298L40.2646 93.8215L41.0637 92.9044L41.8293 91.9767L42.5606 91.0365L43.2565 90.0817L43.9163 89.1103L44.539 88.1201L45.1237 87.1089L45.6695 86.0744L46.1755 85.0141L46.6408 83.9255L47.0644 82.806L47.4452 81.6526L47.7821 80.4625L48.0741 79.2325L48.3198 77.9593L48.5178 76.6393L48.6668 75.2687L48.7652 73.8435L48.8113 72.3593L48.8031 70.8114L48.7386 69.1947L48.6156 67.5039L48.4316 65.7328L48.1837 63.8751L47.869 61.9237L47.4841 59.8708L47.0252 57.7079L46.4881 55.4257L45.8682 53.0138L45.1602 50.4607L44.3583 47.7537L43.4559 44.8786L43.6847 43.0659L46.6311 44.0103L49.4032 44.8514L52.016 45.596L54.4827 46.2503L56.8152 46.8198L59.0245 47.3093L61.1201 47.7232L63.111 48.0655L65.0051 48.3395L66.8098 48.5487L68.5319 48.6957L70.1774 48.7831L71.752 48.8135L73.261 48.7888L74.7092 48.711L76.101 48.582L77.4407 48.4032L78.7321 48.1764L79.9789 47.9027L81.1845 47.5835L82.3521 47.22L83.4848 46.8134L84.5854 46.3646L85.6566 45.8746L86.7011 45.3445L87.7213 44.7752L88.7196 44.1676L89.6982 43.5225L90.6593 42.8408L91.6051 42.1235L92.5376 41.3715L93.4586 40.5856L94.3702 39.7668L95.2742 38.9162L96.1724 38.0347L97.0665 37.1235L97.9582 36.1837L98.8492 35.2165L99.7411 34.2232L100.635 33.2052L101.534 32.1639L102.438 31.101L103.349 30.018L104.268 28.9168L105.197 27.7993L106.138 26.6674L107.09 25.5233L108.056 24.3692L109.037 23.2076L110.034 22.0409L111.047 20.8718L112.079 19.703L113.129 18.5374L114.198 17.3781L115.287 16.2281L116.397 15.0907L117.528 13.9691L118.681 12.8669L119.855 11.7873L121.051 10.734L122.269 9.71041L123.509 8.72019L124.77 7.76685L126.052 6.85391L127.354 5.98483L128.676 5.16301L130.017 4.39172L131.376 3.6741L132.751 3.01317L134.142 2.41172L135.548 1.87235L136.966 1.39745L138.395 0.989122L139.834 0.649211L141.281 0.379265L142.734 0.180524L144.191 0.0539062L145.65 0L147.11 0.0190557L148.569 0.110985L150.024 0.27536L151.474 0.511419L152.916 0.818076L154.351 1.19393L155.774 1.63727L157.186 2.14611L158.584 2.71821L159.967 3.35106L161.334 4.04196L162.684 4.78799L164.015 5.58607L165.327 6.43299L166.619 7.3254L167.89 8.25987L169.139 9.23291L170.368 10.241L171.574 11.2805L172.759 12.348L173.922 13.4399L175.063 14.5526L176.183 15.6829L177.282 16.8273L178.361 17.9825L179.42 19.1455L180.46 20.3131L181.482 21.4824L182.487 22.6506L183.475 23.815L184.448 24.973L185.407 26.1221L186.353 27.2601L187.287 28.3848L188.211 29.494L189.126 30.5859L190.033 31.6586L190.934 32.7105L191.83 33.7398L192.723 34.7451L193.614 35.7249L194.505 36.678L195.398 37.603L196.294 38.4988L197.195 39.3643L198.103 40.1984L199.019 41.0001L199.946 41.7685L200.885 42.5025L201.839 43.2013L202.809 43.8639L203.797 44.4896L204.807 45.0774L205.839 45.6263L206.897 46.1356L207.984 46.6041L209.101 47.031L210.251 47.4153L211.438 47.7558L212.665 48.0513L213.935 48.3008L215.251 48.5027L216.617 48.6557L218.038 48.7581L219.517 48.8084L221.06 48.8046L222.671 48.7447L224.356 48.6265L226.12 48.4474L227.971 48.2047L229.914 47.8955L231.959 47.5163L234.113 47.0634L236.385 46.5327L238.786 45.9195L241.328 45.2188L244.022 44.4246L246.883 43.5305L249.011 43.4409L248.058 46.4019L247.209 49.1873L246.457 51.8123L245.796 54.2901L245.22 56.633L244.724 58.8517L244.304 60.956L243.956 62.9549L243.677 64.8565L243.463 66.6681L243.311 68.3965L243.219 70.0479L243.184 71.6279L243.204 73.142L243.278 74.5948L243.403 75.991L243.578 77.3347L243.801 78.6298L244.071 79.88L244.386 81.0888L244.746 82.2593L245.15 83.3946L245.595 84.4977L246.082 85.5712L246.609 86.6177L247.175 87.6397L247.78 88.6397L248.422 89.6198L249.101 90.5822L249.815 91.5292L250.564 92.4626L251.348 93.3845L252.164 94.2968L253.012 95.2013L253.891 96.0999L254.8 96.9942L255.737 97.886L256.703 98.777L257.694 99.6688L258.71 100.563L259.749 101.461L260.811 102.364L261.892 103.275L262.992 104.193L264.108 105.122L265.239 106.061L266.382 107.013L267.536 107.978L268.697 108.957L269.863 109.953L271.032 110.965L272.201 111.995L273.367 113.043L274.527 114.111L275.678 115.198L276.816 116.307L277.939 117.436L279.043 118.587L280.125 119.76L281.18 120.954L282.206 122.17L283.199 123.408L284.156 124.667L285.072 125.948L285.945 127.248L286.77 128.569L287.546 129.908L288.268 131.266L288.933 132.64L289.54 134.03L290.084 135.434L290.564 136.851L290.978 138.28L291.323 139.718L291.599 141.164L291.803 142.617L291.936 144.074L291.995 145.533L291.999 145.998Z" fill="url(#paint0_linear_541_2027)"/>
<defs>
<linearGradient id="paint0_linear_541_2027" x1="-166.854" y1="-49.3574" x2="-84.0257" y2="-329.361" gradientUnits="userSpaceOnUse">
<stop stop-color="#6685AD"/>
<stop offset="1" stop-color="#6BD6DE"/>
</linearGradient>
</defs>
</svg>
