<svg width="257" height="257" viewBox="0 0 257 257" fill="none" xmlns="http://www.w3.org/2000/svg">
<path fill-rule="evenodd" clip-rule="evenodd" d="M256.374 128.223V128.223L252.724 129.457L249.375 130.624L246.301 131.732L243.478 132.79L240.886 133.804L238.507 134.779L236.324 135.722L234.322 136.637L232.489 137.529L230.812 138.401L229.28 139.258L227.885 140.102L226.616 140.937L225.466 141.765L224.429 142.59L223.496 143.413L222.662 144.237L221.922 145.064L221.27 145.897L220.701 146.736L220.212 147.585L219.798 148.444L219.454 149.315L219.178 150.2L218.967 151.1L218.816 152.017L218.722 152.951L218.684 153.905L218.697 154.879L218.76 155.874L218.869 156.891L219.021 157.932L219.215 158.996L219.447 160.086L219.715 161.2L220.016 162.341L220.347 163.509L220.706 164.703L221.09 165.924L221.496 167.172L221.922 168.448L222.363 169.75L222.819 171.079L223.284 172.434L223.757 173.815L224.233 175.221L224.71 176.651L225.185 178.104L225.653 179.578L226.112 181.072L226.559 182.585L226.989 184.114L227.399 185.658L227.785 187.214L228.146 188.781L228.476 190.355L228.772 191.935L229.032 193.516L229.253 195.098L229.43 196.676L229.563 198.247L229.647 199.809L229.681 201.359L229.662 202.892L229.589 204.407L229.46 205.9L229.273 207.369L229.028 208.81L228.723 210.22L228.359 211.597L227.935 212.94L227.452 214.244L226.91 215.51L226.309 216.734L225.652 217.916L224.94 219.054L224.174 220.148L223.356 221.196L222.489 222.2L221.576 223.158L220.619 224.072L219.62 224.942L218.584 225.768L217.513 226.554L216.41 227.299L215.279 228.006L214.123 228.678L212.945 229.316L211.749 229.924L210.539 230.504L209.317 231.059L208.086 231.593L206.85 232.109L205.612 232.612L204.375 233.103L203.141 233.589L201.913 234.072L200.693 234.558L199.484 235.049L198.289 235.551L197.108 236.069L195.943 236.607L194.797 237.169L193.671 237.761L192.567 238.388L191.483 239.052L190.416 239.749L189.364 240.477L188.321 241.231L187.286 242.007L186.255 242.801L185.225 243.61L184.194 244.428L183.159 245.253L182.118 246.079L181.068 246.903L180.008 247.719L178.936 248.525L177.851 249.314L176.75 250.082L175.634 250.826L174.5 251.541L173.348 252.223L172.178 252.866L170.99 253.468L169.782 254.025L168.556 254.532L167.311 254.986L166.049 255.384L164.77 255.722L163.474 255.999L162.163 256.212L160.839 256.358L159.502 256.436L158.154 256.445L156.797 256.384L155.433 256.252L154.063 256.05L152.69 255.776L151.315 255.433L149.94 255.021L148.568 254.542L147.201 253.998L145.839 253.39L144.487 252.722L143.144 251.996L141.813 251.215L140.496 250.383L139.194 249.502L137.909 248.577L136.641 247.612L135.393 246.611L134.164 245.577L132.956 244.515L131.77 243.429L130.606 242.324L129.464 241.202L128.345 240.069L127.248 238.928L126.174 237.784L125.121 236.64L124.091 235.5L123.083 234.367L122.094 233.246L121.126 232.139L120.177 231.049L119.246 229.98L118.332 228.935L117.434 227.917L116.55 226.927L115.679 225.969L114.82 225.046L113.97 224.158L113.13 223.31L112.296 222.502L111.467 221.737L110.641 221.016L109.816 220.343L108.991 219.718L108.162 219.143L107.328 218.621L106.487 218.153L105.637 217.742L104.773 217.388L103.895 217.094L103 216.863L102.084 216.695L101.144 216.595L100.177 216.563L99.1803 216.603L98.1495 216.718L97.0808 216.91L95.97 217.183L94.8127 217.541L93.604 217.987L92.3385 218.527L91.0106 219.163L89.614 219.903L88.142 220.751L86.587 221.715L84.9409 222.801L83.1947 224.016L81.3385 225.371L79.361 226.875L77.2502 228.539L74.9922 230.375L72.5718 232.396L69.9717 234.619L67.1727 237.061L66.3099 236.053L67.0139 232.444L67.6286 229.113L68.1593 226.035L68.6107 223.189L68.9872 220.554L69.2924 218.112L69.5296 215.847L69.7019 213.746L69.8117 211.795L69.8615 209.983L69.8532 208.299L69.7887 206.734L69.6697 205.278L69.4975 203.925L69.2733 202.666L68.9984 201.495L68.6737 200.406L68.2999 199.393L67.8781 198.452L67.4087 197.576L66.8924 196.762L66.3298 196.005L65.7213 195.301L65.0675 194.647L64.3687 194.039L63.6255 193.473L62.8381 192.947L62.0071 192.457L61.1329 192L60.216 191.573L59.257 191.174L58.2563 190.799L57.2146 190.447L56.1327 190.113L55.0113 189.797L53.8514 189.495L52.6539 189.204L51.42 188.923L50.1509 188.649L48.848 188.378L47.5128 188.11L46.1471 187.84L44.7526 187.568L43.3314 187.29L41.8857 187.004L40.4179 186.707L38.9304 186.398L37.426 186.074L35.9076 185.733L34.3783 185.373L32.8413 184.99L31.3 184.584L29.7579 184.153L28.2186 183.694L26.6861 183.206L25.164 182.687L23.6565 182.136L22.1674 181.552L20.7009 180.932L19.2608 180.277L17.8513 179.585L16.4762 178.856L15.1393 178.09L13.8443 177.286L12.5948 176.444L11.3941 175.564L10.2453 174.647L9.15121 173.694L8.11442 172.706L7.13716 171.682L6.22136 170.626L5.36857 169.537L4.57997 168.418L3.85637 167.27L3.19817 166.095L2.60539 164.895L2.07762 163.672L1.61407 162.428L1.21357 161.166L0.874552 159.886L0.595083 158.593L0.372885 157.286L0.205342 155.97L0.0895325 154.645L0.0222436 153.314L0 151.978L0.0190875 150.64L0.0755784 149.301L0.165356 147.962L0.284141 146.625L0.427512 145.29L0.59093 143.96L0.769758 142.635L0.959281 141.314L1.15472 140L1.35124 138.692L1.54399 137.391L1.72806 136.095L1.89854 134.806L2.0505 133.522L2.17896 132.243L2.27896 130.968L2.34547 129.696L2.37344 128.426L2.3588 127.156L2.30402 125.884L2.21414 124.61L2.0942 123.333L1.94919 122.05L1.78408 120.763L1.6038 119.469L1.41328 118.17L1.21743 116.864L1.02112 115.552L0.829193 114.233L0.646443 112.91L0.477609 111.581L0.327355 110.247L0.200253 108.911L0.100764 107.573L0.0332148 106.233L0.00177743 104.894L0.010442 103.558L0.0629935 102.225L0.162986 100.898L0.313718 99.5788L0.518209 98.2691L0.779171 96.9711L1.09899 95.687L1.47972 94.4188L1.92304 93.1688L2.43025 91.939L3.00226 90.7316L3.63961 89.5485L4.3424 88.3918L5.11036 87.2633L5.94282 86.1647L6.8387 85.0976L7.79657 84.0635L8.81463 83.0636L9.89073 82.0991L11.0224 81.1707L12.2069 80.2793L13.4412 79.4253L14.7221 78.6091L16.046 77.8306L17.4093 77.0898L18.8083 76.3862L20.2391 75.7195L21.6976 75.0887L23.18 74.4931L24.6821 73.9314L26.1999 73.4025L27.7296 72.9048L29.2671 72.4369L30.8087 71.9969L32.3506 71.5832L33.8894 71.1937L35.4215 70.8264L36.9437 70.4792L38.4529 70.1499L39.9461 69.8364L41.4205 69.5363L42.8735 69.2473L44.3027 68.9669L45.7059 68.693L47.081 68.4229L48.4261 68.1543L49.7394 67.8848L51.0195 67.6118L52.2647 67.3329L53.474 67.0457L54.646 66.7475L55.7797 66.4359L56.8743 66.1084L57.9289 65.7622L58.9427 65.3949L59.9151 65.0038L60.8455 64.5861L61.7333 64.139L62.5781 63.6597L63.3794 63.1452L64.1368 62.5924L64.8498 61.9981L65.518 61.3591L66.1409 60.6717L66.7182 59.9322L67.2493 59.1368L67.7337 58.2812L68.1708 57.361L68.5599 56.3714L68.9003 55.3074L69.1912 54.1633L69.4317 52.9332L69.6205 51.6105L69.7567 50.1883L69.8387 48.6588L69.865 47.0136L69.834 45.2433L69.7435 43.3378L69.5914 41.2859L69.3752 39.0749L69.092 36.6912L68.7386 34.1194L68.3115 31.3422L67.8065 28.3406L67.2192 25.0929L66.5442 21.5751L66.2358 18.5588L69.1027 21.0744L71.764 23.3652L74.2397 25.4492L76.5476 27.3426L78.7038 29.0596L80.7223 30.6131L82.6159 32.0143L84.396 33.2736L86.073 34.3999L87.656 35.4015L89.1536 36.2858L90.5735 37.0594L91.9226 37.7283L93.2073 38.298L94.4335 38.7733L95.6067 39.1588L96.7318 39.4585L97.8134 39.6762L98.8558 39.8153L99.8631 39.8788L100.839 39.8698L101.787 39.7909L102.71 39.6446L103.612 39.4333L104.496 39.1592L105.363 38.8243L106.218 38.4308L107.061 37.9806L107.897 37.4755L108.727 36.9175L109.553 36.3085L110.378 35.6502L111.203 34.9446L112.031 34.1935L112.863 33.3991L113.702 32.5632L114.548 31.6879L115.404 30.7756L116.271 29.8283L117.151 28.8487L118.044 27.839L118.953 26.8021L119.879 25.7406L120.822 24.6574L121.784 23.5556L122.766 22.4383L123.768 21.3088L124.791 20.1707L125.836 19.0275L126.903 17.8828L127.993 16.7405L129.105 15.6045L130.24 14.4789L131.397 13.3677L132.576 12.275L133.777 11.205L134.999 10.1618L136.242 9.14969L137.503 8.17264L138.783 7.23469L140.08 6.33976L141.392 5.49161L142.719 4.69385L144.058 3.94985L145.407 3.2628L146.766 2.63558L148.132 2.0708L149.503 1.57075L150.877 1.1374L152.252 0.772325L153.626 0.47675L154.997 0.251502L156.363 0.0970119L157.723 0.0133041L159.074 0L160.414 0.0563187L161.743 0.181085L163.058 0.37274L164.359 0.629356L165.643 0.948655L166.911 1.32803L168.162 1.76457L169.394 2.25508L170.607 2.79611L171.802 3.384L172.978 4.01488L174.135 4.68472L175.274 5.38937L176.396 6.12454L177.502 6.8859L178.592 7.66903L179.668 8.4695L180.732 9.28288L181.784 10.1047L182.828 10.9307L183.865 11.7563L184.897 12.5774L185.927 13.3897L186.957 14.189L187.991 14.9712L189.031 15.7325L190.08 16.4688L191.141 17.1763L192.219 17.8512L193.317 18.4899L194.436 19.0926L195.576 19.6639L196.735 20.2089L197.911 20.7324L199.102 21.2391L200.307 21.7336L201.523 22.2204L202.749 22.7038L203.981 23.1882L205.218 23.6776L206.456 24.1761L207.693 24.6875L208.925 25.2155L210.151 25.7637L211.365 26.3354L212.566 26.9339L213.75 27.5621L214.913 28.2228L216.052 28.9185L217.165 29.6515L218.246 30.4239L219.294 31.2373L220.305 32.0933L221.276 32.9928L222.203 33.9369L223.085 34.926L223.919 35.9603L224.701 37.0396L225.431 38.1637L226.106 39.3317L226.725 40.5426L227.286 41.795L227.788 43.0874L228.231 44.418L228.614 45.7845L228.937 47.1847L229.201 48.616L229.406 50.0759L229.554 51.5615L229.645 53.0698L229.681 54.5979L229.663 56.1426L229.595 57.7009L229.478 59.2698L229.314 60.846L229.107 62.4266L228.859 64.0086L228.574 65.5891L228.254 67.1653L227.903 68.7346L227.525 70.2946L227.122 71.8427L226.698 73.3769L226.256 74.8951L225.801 76.3953L225.335 77.876L224.862 79.3356L224.385 80.7727L223.908 82.1863L223.434 83.5753L222.966 84.9389L222.507 86.2764L222.061 87.5874L221.63 88.8714L221.217 90.1284L220.826 91.3582L220.459 92.5609L220.118 93.7367L219.807 94.8859L219.529 96.0089L219.285 97.1064L219.079 98.1788L218.913 99.2269L218.79 100.252L218.712 101.254L218.683 102.234L218.704 103.194L218.78 104.134L218.912 105.057L219.104 105.962L219.359 106.851L219.681 107.727L220.072 108.59L220.537 109.441L221.08 110.283L221.705 111.118L222.417 111.947L223.22 112.772L224.12 113.595L225.124 114.419L226.237 115.246L227.467 116.078L228.822 116.919L230.309 117.771L231.938 118.638L233.721 119.523L235.667 120.43L237.791 121.364L240.106 122.329L242.628 123.329L245.375 124.372L248.367 125.464L251.626 126.611L255.177 127.823L256.374 128.223Z" fill="url(#paint0_linear_541_2021)"/>
<defs>
<linearGradient id="paint0_linear_541_2021" x1="-752.298" y1="-661.653" x2="-582.957" y2="-854.194" gradientUnits="userSpaceOnUse">
<stop stop-color="#215724"/>
<stop offset="1" stop-color="#FCD4F5"/>
</linearGradient>
</defs>
</svg>
