<svg width="318" height="326" viewBox="0 0 318 326" fill="none" xmlns="http://www.w3.org/2000/svg">
<path fill-rule="evenodd" clip-rule="evenodd" d="M280.709 162.651V162.651L280.853 163.873L281.282 165.103L281.994 166.351L282.985 167.625L284.247 168.933L285.771 170.284L287.544 171.684L289.548 173.141L291.761 174.658L294.153 176.241L296.688 177.89L299.324 179.606L302.01 181.386L304.687 183.222L307.288 185.106L309.742 187.025L311.974 188.96L313.91 190.893L315.477 192.801L316.613 194.66L317.267 196.446L317.405 198.139L317.011 199.716L316.09 201.165L314.667 202.474L312.785 203.638L310.5 204.66L307.882 205.546L305.003 206.307L301.942 206.958L298.772 207.517L295.562 208.003L292.376 208.435L289.269 208.835L286.285 209.22L283.465 209.61L280.838 210.02L278.428 210.468L276.252 210.967L274.322 211.531L272.648 212.172L271.234 212.901L270.082 213.729L269.194 214.665L268.566 215.718L268.196 216.896L268.078 218.207L268.208 219.657L268.576 221.253L269.172 222.997L269.985 224.894L270.998 226.943L272.192 229.143L273.545 231.487L275.027 233.966L276.605 236.566L278.241 239.267L279.887 242.043L281.494 244.862L283.005 247.687L284.363 250.472L285.505 253.172L286.374 255.734L286.917 258.107L287.087 260.244L286.851 262.103L286.19 263.648L285.099 264.858L283.592 265.721L281.698 266.243L279.457 266.437L276.923 266.332L274.155 265.965L271.214 265.378L268.163 264.618L265.061 263.733L261.962 262.772L258.912 261.777L255.951 260.792L253.112 259.852L250.421 258.99L247.897 258.235L245.553 257.609L243.399 257.134L241.44 256.826L239.677 256.699L238.11 256.766L236.736 257.037L235.552 257.521L234.551 258.224L233.727 259.152L233.073 260.31L232.579 261.701L232.236 263.326L232.032 265.185L231.956 267.274L231.992 269.586L232.125 272.11L232.334 274.832L232.6 277.728L232.896 280.771L233.196 283.925L233.47 287.146L233.686 290.383L233.81 293.574L233.807 296.656L233.644 299.559L233.291 302.21L232.723 304.542L231.92 306.493L230.872 308.01L229.576 309.058L228.04 309.615L226.282 309.681L224.327 309.273L222.206 308.426L219.954 307.188L217.61 305.62L215.211 303.787L212.792 301.759L210.383 299.604L208.014 297.389L205.706 295.173L203.476 293.009L201.338 290.945L199.299 289.019L197.366 287.265L195.538 285.71L193.816 284.374L192.197 283.276L190.675 282.428L189.244 281.84L187.899 281.521L186.631 281.476L185.432 281.708L184.294 282.221L183.208 283.014L182.164 284.086L181.153 285.434L180.166 287.053L179.192 288.932L178.221 291.06L177.244 293.419L176.249 295.985L175.228 298.73L174.169 301.615L173.065 304.595L171.908 307.618L170.691 310.622L169.409 313.537L168.061 316.289L166.648 318.8L165.173 320.994L163.643 322.798L162.068 324.15L160.462 325L158.839 325.316L157.214 325.086L155.604 324.32L154.024 323.045L152.486 321.309L151.002 319.172L149.578 316.707L148.219 313.988L146.927 311.094L145.7 308.1L144.534 305.076L143.422 302.084L142.357 299.181L141.33 296.411L140.332 293.815L139.352 291.421L138.381 289.255L137.409 287.335L136.424 285.674L135.418 284.283L134.38 283.166L133.301 282.328L132.171 281.771L130.983 281.494L129.726 281.495L128.394 281.771L126.978 282.316L125.471 283.124L123.867 284.183L122.162 285.482L120.351 287.004L118.434 288.728L116.412 290.628L114.289 292.673L112.073 294.823L109.777 297.035L107.416 299.254L105.012 301.422L102.592 303.475L100.188 305.344L97.8323 306.959L95.5637 308.254L93.4193 309.167L91.4354 309.647L89.6441 309.658L88.0718 309.18L86.7369 308.209L85.6488 306.765L84.8073 304.88L84.2028 302.605L83.8174 300L83.6264 297.133L83.6002 294.074L83.7058 290.896L83.9091 287.662L84.1762 284.435L84.4744 281.267L84.7733 278.204L85.0452 275.282L85.2651 272.531L85.4111 269.974L85.4639 267.627L85.4065 265.502L85.2242 263.607L84.9041 261.944L84.435 260.516L83.8067 259.321L83.0104 258.356L82.0383 257.618L80.8835 257.1L79.5404 256.796L78.0045 256.697L76.273 256.793L74.3448 257.073L72.2214 257.523L69.9073 258.126L67.411 258.862L64.7453 259.709L61.9285 260.638L58.9853 261.619L55.947 262.614L52.8524 263.584L49.7474 264.484L46.6847 265.267L43.7225 265.885L40.9225 266.29L38.347 266.44L36.056 266.295L34.1032 265.827L32.5322 265.018L31.374 263.863L30.644 262.37L30.3413 260.56L30.4487 258.465L30.9346 256.125L31.7553 253.59L32.8581 250.909L34.1851 248.134L35.676 245.313L37.2716 242.49L38.9153 239.705L40.5555 236.99L42.1457 234.372L43.6456 231.873L45.0207 229.507L46.242 227.284L47.2852 225.21L48.1308 223.289L48.7627 221.52L49.1679 219.901L49.3359 218.428L49.2584 217.096L48.9289 215.897L48.3423 214.825L47.4952 213.871L46.3856 213.026L45.0133 212.282L43.3803 211.628L41.4911 211.053L39.3536 210.544L36.9795 210.089L34.3855 209.673L31.5941 209.281L28.6346 208.896L25.5438 208.501L22.3668 208.075L19.157 207.599L15.976 207.053L12.8924 206.418L9.98004 205.675L7.3151 204.81L4.97248 203.811L3.02163 202.669L1.52205 201.383L0.519072 199.956L0.0404669 198.398L0.0942558 196.723L0.668125 194.95L1.73049 193.101L3.23303 191.199L5.11437 189.269L7.3043 187.332L9.72814 185.41L12.3107 183.52L14.9798 181.675L17.6682 179.886L20.316 178.159L22.8708 176.499L25.288 174.906L27.5311 173.378L29.57 171.912L31.3811 170.503L32.9461 169.145L34.251 167.831L35.2856 166.552L36.0424 165.3L36.5168 164.068L36.7057 162.845L36.608 161.624L36.2244 160.396L35.5571 159.152L34.6103 157.882L33.3905 156.58L31.907 155.236L30.1726 153.844L28.2039 152.397L26.023 150.89L23.6576 149.318L21.1421 147.679L18.5187 145.973L15.837 144.204L13.1548 142.376L10.5371 140.498L8.05459 138.585L5.78195 136.651L3.7944 134.716L2.16403 132.803L0.955502 130.934L0.221743 129.134L0 127.426L0.308918 125.829L1.14697 124.359L2.49251 123.027L4.30548 121.84L6.53046 120.795L9.10069 119.888L11.9425 119.108L14.9797 118.441L18.1374 117.869L21.3451 117.373L24.5388 116.933L27.6623 116.53L30.668 116.143L33.5165 115.756L36.1761 115.349L38.6223 114.908L40.8367 114.418L42.8061 113.865L44.5213 113.237L45.977 112.523L47.1703 111.712L48.1009 110.794L48.7702 109.76L49.1811 108.603L49.3382 107.313L49.2476 105.885L48.9169 104.313L48.356 102.593L47.5769 100.72L46.5946 98.6953L45.4277 96.5195L44.0987 94.1979L42.6351 91.7394L41.0695 89.1576L39.4405 86.4712L37.7925 83.7051L36.1757 80.8903L34.6451 78.0639L33.2593 75.2688L32.0787 72.5524L31.1621 69.9652L30.5643 67.5583L30.3322 65.3804L30.5017 63.4753L31.0948 61.8783L32.1175 60.6142L33.5596 59.6951L35.395 59.1201L37.5837 58.8751L40.0748 58.9343L42.81 59.2627L45.7274 59.8179L48.7646 60.5535L51.8621 61.4214L54.9653 62.3739L58.0261 63.3658L61.0034 64.3553L63.8634 65.3048L66.5795 66.181L69.1315 66.9552L71.5047 67.603L73.6894 68.1035L75.6801 68.4392L77.4743 68.5955L79.0723 68.5598L80.4764 68.3218L81.6906 67.8728L82.7202 67.2053L83.5717 66.3133L84.2526 65.1921L84.7714 63.8384L85.1378 62.2505L85.3626 60.4288L85.4583 58.3763L85.4389 56.0991L85.3206 53.6074L85.122 50.9161L84.8641 48.0458L84.5709 45.0238L84.2693 41.8847L83.9889 38.6711L83.7616 35.4336L83.6211 32.2304L83.6017 29.1263L83.7368 26.1907L84.0573 23.4945L84.5897 21.1072L85.3542 19.092L86.3633 17.5026L87.6201 16.3785L89.1184 15.7426L90.8425 15.599L92.7683 15.9333L94.8654 16.7135L97.0985 17.8928L99.4302 19.413L101.823 21.2085L104.242 23.2101L106.654 25.3489L109.031 27.5587L111.35 29.7786L113.593 31.9539L115.747 34.0369L117.801 35.9869L119.752 37.7701L121.596 39.3588L123.335 40.7306L124.971 41.8678L126.508 42.7566L127.952 43.3862L129.311 43.7485L130.59 43.8377L131.8 43.6496L132.947 43.1818L134.041 42.4333L135.091 41.4053L136.106 40.1006L137.097 38.5247L138.072 36.6859L139.043 34.5966L140.018 32.2732L141.01 29.7382L142.026 27.02L143.078 24.1545L144.174 21.1856L145.322 18.1655L146.53 15.1545L147.801 12.2207L149.138 9.43775L150.541 6.88294L152.007 4.6335L153.529 2.76266L155.097 1.33512L156.699 0.402589L158.321 0L159.946 0.142699L161.56 0.825225L163.146 2.02175L164.691 3.68816L166.184 5.76543L167.618 8.18382L168.987 10.8675L170.29 13.7387L171.527 16.7217L172.703 19.7455L173.823 22.7459L174.895 25.6668L175.927 28.4603L176.929 31.0868L177.911 33.5144L178.883 35.718L179.854 37.6783L180.837 39.381L181.839 40.8162L182.871 41.9769L183.943 42.8591L185.064 43.4611L186.242 43.7826L187.487 43.8255L188.807 43.5931L190.209 43.0903L191.701 42.3242L193.289 41.3042L194.978 40.0425L196.772 38.555L198.672 36.8616L200.677 34.9874L202.785 32.9633L204.986 30.8266L207.271 28.6217L209.623 26.3998L212.022 24.2191L214.441 22.1434L216.85 20.2408L219.216 18.5806L221.501 17.2306L223.668 16.253L225.679 15.7007L227.503 15.613L229.112 16.0131L230.486 16.9057L231.613 18.2767L232.494 20.0943L233.135 22.3112L233.554 24.8682L233.774 27.6983L233.824 30.7307L233.737 33.895L233.547 37.1238L233.288 40.3556L232.993 43.5361L232.692 46.6189L232.414 49.5655L232.184 52.3453L232.025 54.9346L231.956 57.3158L231.995 59.4766L232.156 61.4091L232.454 63.109L232.898 64.5745L233.501 65.8065L234.27 66.8074L235.213 67.5815L236.339 68.1341L237.651 68.4719L239.156 68.603L240.857 68.5371L242.754 68.2855L244.846 67.8617L247.13 67.2819L249.598 66.5652L252.238 65.7344L255.032 64.8161L257.957 63.8413L260.983 62.8456L264.071 61.8688L267.178 60.9546L270.251 60.1498L273.234 59.5025L276.064 59.0601L278.679 58.8674L281.019 58.9632L283.029 59.378L284.663 60.1317L285.889 61.2317L286.687 62.672L287.057 64.4337L287.013 66.4863L286.585 68.7896L285.814 71.297L284.753 73.958L283.457 76.7217L281.989 79.5388L280.406 82.3642L278.766 85.1578L277.122 87.8857L275.521 90.5202L274.004 93.0396L272.607 95.428L271.36 97.6743L270.287 99.7718L269.409 101.717L268.742 103.51L268.3 105.153L268.093 106.649L268.131 108.003L268.42 109.223L268.965 110.315L269.771 111.287L270.839 112.148L272.169 112.908L273.761 113.575L275.61 114.163L277.708 114.681L280.046 115.144L282.606 115.565L285.368 115.959L288.303 116.344L291.376 116.737L294.542 117.157L297.751 117.623L300.941 118.157L304.045 118.776L306.989 119.501L309.699 120.345L312.098 121.323L314.115 122.442L315.69 123.705L316.774 125.11L317.338 126.648L317.368 128.305L316.876 130.064L315.888 131.903L314.452 133.798L312.626 135.725L310.481 137.662L308.089 139.588L305.527 141.484L302.867 143.337L300.177 145.136L297.519 146.872L294.947 148.543L292.505 150.147L290.232 151.685L288.159 153.16L286.31 154.578L284.705 155.944L283.358 157.265L282.279 158.549L281.478 159.804L280.958 161.039L280.724 162.262L280.709 162.651Z" fill="url(#paint0_linear_541_2044)"/>
<defs>
<linearGradient id="paint0_linear_541_2044" x1="2007.91" y1="-1942.89" x2="2231.48" y2="-1711.83" gradientUnits="userSpaceOnUse">
<stop stop-color="#BF9E5E"/>
<stop offset="1" stop-color="#E6C714"/>
</linearGradient>
</defs>
</svg>
