<svg width="200" height="200" viewBox="0 0 200 200" fill="none" xmlns="http://www.w3.org/2000/svg">
<path fill-rule="evenodd" clip-rule="evenodd" d="M167.118 100.001L167.128 100.672L167.159 101.344L167.209 102.018L167.28 102.693L167.37 103.372L167.481 104.055L167.612 104.741L167.764 105.433L167.935 106.131L168.128 106.836L168.34 107.549L168.573 108.269L168.826 108.999L169.1 109.738L169.395 110.489L169.71 111.25L170.046 112.024L170.402 112.812L170.779 113.613L171.177 114.429L171.596 115.261L172.035 116.109L172.495 116.975L172.975 117.859L173.476 118.762L173.997 119.685L174.538 120.629L175.099 121.595L175.68 122.584L176.28 123.596L176.9 124.633L177.538 125.695L178.194 126.783L178.867 127.898L179.558 129.041L180.265 130.212L180.987 131.412L181.724 132.641L182.474 133.901L183.237 135.192L184.01 136.513L184.793 137.866L185.585 139.251L186.382 140.667L187.184 142.115L187.989 143.594L188.794 145.104L189.596 146.644L190.394 148.215L191.184 149.814L191.964 151.44L192.73 153.093L193.479 154.77L194.207 156.47L194.911 158.19L195.588 159.928L196.232 161.681L196.84 163.446L197.408 165.219L197.931 166.997L198.405 168.776L198.826 170.552L199.19 172.32L199.491 174.075L199.727 175.812L199.893 177.526L199.985 179.212L200 180.865L199.935 182.479L199.786 184.048L199.553 185.567L199.231 187.031L198.821 188.435L198.321 189.774L197.73 191.043L197.049 192.239L196.278 193.356L195.419 194.393L194.473 195.345L193.443 196.211L192.332 196.989L191.143 197.677L189.879 198.275L188.546 198.783L187.147 199.2L185.687 199.529L184.172 199.769L182.607 199.924L180.996 199.996L179.347 199.987L177.663 199.901L175.951 199.741L174.215 199.511L172.461 199.214L170.694 198.856L168.919 198.439L167.14 197.969L165.362 197.449L163.588 196.885L161.822 196.28L160.068 195.639L158.329 194.965L156.607 194.263L154.906 193.536L153.227 192.788L151.572 192.024L149.943 191.245L148.342 190.456L146.769 189.658L145.226 188.856L143.714 188.052L142.232 187.247L140.782 186.445L139.363 185.647L137.976 184.855L136.621 184.071L135.297 183.296L134.004 182.533L132.742 181.782L131.51 181.044L130.307 180.32L129.134 179.612L127.989 178.92L126.872 178.245L125.782 177.588L124.718 176.948L123.679 176.328L122.665 175.726L121.674 175.143L120.706 174.581L119.76 174.038L118.835 173.515L117.931 173.013L117.045 172.531L116.178 172.069L115.328 171.629L114.495 171.208L113.678 170.809L112.876 170.43L112.087 170.072L111.312 169.735L110.549 169.418L109.798 169.122L109.058 168.846L108.328 168.591L107.606 168.356L106.893 168.142L106.188 167.949L105.489 167.775L104.797 167.622L104.11 167.49L103.427 167.377L102.748 167.285L102.072 167.213L101.398 167.161L100.726 167.129L100.055 167.117L99.3836 167.126L98.7117 167.154L98.0383 167.203L97.3628 167.272L96.6844 167.361L96.0023 167.47L95.3158 167.6L94.6242 167.75L93.9267 167.92L93.2224 168.11L92.5108 168.321L91.7908 168.552L91.0619 168.804L90.3232 169.076L89.5738 169.369L88.813 169.683L88.04 170.017L87.2538 170.372L86.4538 170.747L85.6389 171.143L84.8085 171.56L83.9615 171.998L83.0972 172.456L82.2147 172.935L81.313 173.434L80.3913 173.953L79.4488 174.493L78.4845 175.052L77.4976 175.632L76.4871 176.23L75.4523 176.848L74.3923 177.485L73.3063 178.139L72.1935 178.812L71.0531 179.501L69.8844 180.206L68.6868 180.927L67.4595 181.663L66.2021 182.412L64.9141 183.174L63.595 183.947L62.2446 184.729L60.8626 185.52L59.4489 186.317L58.0037 187.119L56.5271 187.923L55.0194 188.728L53.4812 189.531L51.9133 190.329L50.3165 191.12L48.6921 191.9L47.0413 192.668L45.366 193.418L43.6679 194.148L41.9493 194.855L40.2127 195.533L38.4608 196.18L36.6968 196.791L34.9239 197.362L33.146 197.889L31.3668 198.368L29.5907 198.793L27.8223 199.161L26.0661 199.468L24.3273 199.709L22.6109 199.88L20.9222 199.979L19.2667 200L17.6498 199.941L16.0769 199.8L14.5534 199.573L13.0846 199.258L11.6756 198.855L10.3314 198.362L9.05644 197.779L7.85506 197.105L6.73112 196.341L5.68805 195.489L4.72879 194.55L3.85577 193.527L3.07089 192.422L2.37549 191.239L1.77032 189.981L1.25561 188.653L0.830976 187.259L0.495539 185.804L0.247878 184.293L0.0860915 182.732L0.00782756 181.125L0.0103257 179.478L0.0904616 177.797L0.244795 176.086L0.469617 174.353L0.761003 172.6L1.11486 170.834L1.52696 169.06L1.99301 167.281L2.50869 165.502L3.06966 163.728L3.67163 161.961L4.31039 160.206L4.9818 158.466L5.68187 156.743L6.40673 155.039L7.15268 153.359L7.91617 151.702L8.69385 150.071L9.48254 148.467L10.2792 146.893L11.0812 145.347L11.8857 143.832L12.6904 142.348L13.493 140.895L14.2915 139.474L15.0839 138.085L15.8685 136.727L16.6438 135.4L17.4082 134.105L18.1605 132.84L18.8995 131.606L19.6242 130.401L20.3335 129.226L21.0268 128.078L21.7032 126.959L22.3621 125.867L23.0029 124.801L23.6252 123.76L24.2285 122.744L24.8124 121.751L25.3767 120.782L25.9211 119.834L26.4454 118.908L26.9494 118.001L27.433 117.114L27.896 116.246L28.3385 115.395L28.7603 114.56L29.1615 113.742L29.5419 112.938L29.9017 112.149L30.2408 111.373L30.5592 110.609L30.857 109.857L31.1343 109.116L31.391 108.385L31.6272 107.663L31.8429 106.949L32.0382 106.243L32.2132 105.544L32.3679 104.851L32.5022 104.164L32.6164 103.481L32.7103 102.801L32.784 102.125L32.8376 101.451L32.871 100.779L32.8843 100.108L32.8774 99.4366L32.8504 98.7647L32.8033 98.0915L32.736 97.4162L32.6485 96.7381L32.5408 96.0563L32.4129 95.3702L32.2647 94.679L32.0962 93.982L31.9073 93.2783L31.6981 92.5673L31.4684 91.8481L31.2183 91.1199L30.9476 90.382L30.6563 89.6335L30.3445 88.8737L30.012 88.1016L29.6588 87.3166L29.2849 86.5177L28.8904 85.704L28.4751 84.8749L28.0392 84.0293L27.5827 83.1664L27.1057 82.2853L26.6081 81.3852L26.0903 80.4652L25.5523 79.5244L24.9943 78.5619L24.4166 77.5768L23.8194 76.5682L23.2032 75.5354L22.5682 74.4775L21.915 73.3936L21.2441 72.2829L20.5561 71.1448L19.8518 69.9784L19.1319 68.7831L18.3974 67.5582L17.6492 66.3033L16.8885 65.0177L16.1165 63.7011L15.3347 62.3532L14.5446 60.9737L13.7479 59.5626L12.9464 58.1199L12.1421 56.6458L11.3373 55.1406L10.5342 53.6049L9.73558 52.0393L8.94403 50.4448L8.16251 48.8225L7.39414 47.1738L6.64222 45.5004L5.91025 43.8041L5.20187 42.0871L4.5209 40.3518L3.8713 38.6011L3.25716 36.8379L2.68267 35.0656L2.15209 33.2879L1.66976 31.5087L1.24 29.7323L0.867135 27.9631L0.555401 26.2058L0.308941 24.4654L0.13174 22.747L0.0275833 21.056L0 19.3977L0.0522208 17.7775L0.187127 16.2009L0.407206 14.6733L0.714506 13.2L1.1106 11.7861L1.59656 10.4365L2.17291 9.1559L2.83962 7.94853L3.59612 6.81831L4.44124 5.76869L5.37327 4.80267L6.38994 3.92272L7.48847 3.13078L8.66558 2.42822L9.91754 1.81586L11.2402 1.29396L12.6291 0.862184L14.0793 0.519694L15.586 0.265109L17.1437 0.0965668L18.7472 0.0117488L20.3911 0.00792568L22.0697 0.0820004L23.7779 0.230556L25.5101 0.449904L27.2613 0.736134L29.0264 1.08516L30.8005 1.49278L32.5792 1.95469L34.358 2.46657L36.1329 3.02408L37.9001 3.62294L39.6562 4.25891L41.398 4.92786L43.1226 5.62578L44.8274 6.3488L46.5103 7.09319L48.169 7.85541L49.802 8.63207L51.4077 9.41998L52.985 10.2161L54.5327 11.0177L56.0502 11.8221L57.5367 12.6269L58.992 13.4297L60.4157 14.2286L61.8078 15.0216L63.1683 15.8069L64.4973 16.5829L65.7952 17.3482L67.0623 18.1015L68.2991 18.8416L69.5061 19.5674L70.684 20.2781L71.8333 20.9726L72.9548 21.6504L74.0493 22.3107L75.1175 22.953L76.1602 23.5767L77.1783 24.1815L78.1726 24.767L79.144 25.3329L80.0934 25.8789L81.0216 26.4048L81.9296 26.9104L82.8181 27.3956L83.6881 27.8603L84.5405 28.3044L85.3761 28.7278L86.1959 29.1306L87.0005 29.5127L87.791 29.8741L88.5681 30.2149L89.3328 30.535L90.0857 30.8344L90.8277 31.1133L91.5597 31.3716L92.2824 31.6094L92.9966 31.8268L93.7031 32.0237L94.4027 32.2003L95.0961 32.3566L95.7841 32.4926L96.4675 32.6083L97.147 32.7038L97.8234 32.7792L98.4974 32.8344L99.1697 32.8694L99.8411 32.8842L100.512 32.879L101.184 32.8536L101.857 32.8081L102.532 32.7424L103.21 32.6565L103.892 32.5504L104.577 32.4241L105.268 32.2775L105.965 32.1107L106.668 31.9234L107.378 31.7158L108.097 31.4878L108.824 31.2393L109.561 30.9702L110.309 30.6806L111.068 30.3704L111.839 30.0395L112.623 29.688L113.421 29.3158L114.233 28.9229L115.061 28.5093L115.905 28.075L116.767 27.6202L117.646 27.1448L118.545 26.6489L119.463 26.1327L120.403 25.5963L121.363 25.0399L122.347 24.4637L123.353 23.8681L124.384 23.2533L125.44 22.6198L126.522 21.9681L127.63 21.2986L128.766 20.612L129.93 19.9089L131.123 19.1903L132.346 18.4569L133.598 17.7097L134.882 16.95L136.196 16.1789L137.541 15.3978L138.918 14.6083L140.327 13.8121L141.767 13.0109L143.239 12.2067L144.741 11.4019L146.275 10.5986L147.838 9.79953L149.43 9.00731L151.05 8.22489L152.697 7.45536L154.369 6.70202L156.063 5.96834L157.779 5.25795L159.513 4.57467L161.262 3.92243L163.024 3.30532L164.796 2.72752L166.574 2.19329L168.353 1.70697L170.13 1.27287L171.9 0.89532L173.658 0.578567L175.4 0.326764L177.12 0.143909L178.814 0.0338033L180.475 0L182.098 0.0457548L183.679 0.173979L185.21 0.387191L186.688 0.687478L188.107 1.07645L189.462 1.55522L190.748 2.12436L191.962 2.78388L193.098 3.53326L194.154 4.37137L195.127 5.29654L196.014 6.30656L196.813 7.39867L197.523 8.56964L198.142 9.81577L198.671 11.1329L199.11 12.5167L199.46 13.9622L199.721 15.4646L199.897 17.0184L199.988 18.6185L199.998 20.2593L199.93 21.9353L199.788 23.6413L199.574 25.3718L199.293 27.1216L198.948 28.8858L198.545 30.6593L198.088 32.4378L197.579 34.2167L197.025 35.992L196.43 37.76L195.797 39.5171L195.13 41.2601L194.434 42.9861L193.713 44.6926L192.97 46.3772L192.209 48.038L191.434 49.673L190.647 51.281L189.851 52.8605L189.05 54.4106L188.245 55.9305L187.441 57.4195L186.637 58.8772L185.838 60.3035L185.045 61.698L184.259 63.061L183.482 64.3925L182.716 65.6929L181.961 66.9624L181.22 68.2016L180.493 69.4109L179.781 70.5911L179.085 71.7426L178.406 72.8663L177.745 73.9629L177.101 75.0331L176.476 76.0778L175.869 77.0979L175.282 78.094L174.715 79.0672L174.167 80.0183L173.64 80.9482L173.132 81.8577L172.646 82.7477L172.179 83.6192L171.733 84.473L171.308 85.3099L170.904 86.1308L170.52 86.9366L170.157 87.7282L169.815 88.5064L169.493 89.2719L169.192 90.0257L168.911 90.7686L168.651 91.5013L168.412 92.2247L168.193 92.9396L167.994 93.6467L167.816 94.3468L167.658 95.0407L167.521 95.7291L167.403 96.4128L167.306 97.0926L167.229 97.7692L167.172 98.4433L167.136 99.1157L167.119 99.7871L167.118 100.001Z" fill="url(#paint0_linear_511_9)"/>
<defs>
<linearGradient id="paint0_linear_511_9" x1="1265.2" y1="-1194.46" x2="1402.5" y2="-1049.03" gradientUnits="userSpaceOnUse">
<stop stop-color="#8FA699"/>
<stop offset="1" stop-color="#750DE3"/>
</linearGradient>
</defs>
</svg>
